<svg version="1" xmlns="http://www.w3.org/2000/svg" width="933.333" height="933.333" viewBox="0 0 700 700"><path d="M26.6 119.7c1.8 7 3.2 13 3.2 13.3-.1.3.2 1.2.5 2 1.9 4.6 3.7 13.1 3.1 14.2-.4.7-.3 1 .1.5 1-.9 5.8 17.1 4.9 18.4-.3.5 0 .9.7.9.6 0 .9.8.6 2-.3 1.1-.1 1.8.4 1.4.5-.3 1 .5 1.1 1.8.3 3.9.5 5.2 1.1 6.8.3.8.7 2.4.9 3.5.2 1.1.6 2.2 1 2.5.3.3.8 1.9 1.1 3.5.2 1.7.7 3.8 1.1 4.7.5 1 .5 2.5.2 3.4-.3.8-.2 1.3.3 1 .5-.3 1.2 1.1 1.7 3.2 1.8 8.7 2.1 10.5 2.5 11.2.1.3.3.9.4 1.5.1.5.4 1.7.8 2.5 1.1 3.1 2.9 10.6 3 13.2.1 1.4.5 2.4.9 2.1.7-.4 1.2 2.8 1.1 6.4-.1.7.4 1.3.9 1.3.6 0 .8 1.1.6 2.5-.3 1.3-.2 2.2.2 2 .5-.3 4 12.1 4.5 16 .1.5.4 1.7.7 2.5.8 1.8 4.5 15.6 5.2 19.1.2 1.3.7 3.1 1 3.9.3.8.8 2.8 1.1 4.5.9 4.6 1 4.9 1.9 6.3.4.7.6 1.6.3 1.8-.3.3.1 2.1.9 4 .8 1.8 1.3 3.7 1.2 4.1 0 .5.1 1.5.4 2.3 2.2 6.4 2.8 9.1 2.3 10-.3.5-.1 1 .5 1 .7 0 1 .6.7 1.4-.3.7-.2 1.7.3 2.2.5.5 1.1 2 1.3 3.4.3 1.4 1.3 5.4 2.2 9 .9 3.6 1.9 7.4 2.1 8.5.2 1.1.8 3.1 1.3 4.5 1.9 4.8 4.2 15.1 3.6 16-.3.6-.1 1 .4 1 .6 0 1 .3.9.7 0 .5.2 1.5.5 2.3 1.6 3.9 3.7 14.2 3.1 15.2-.4.6-.3.8.3.5 1.2-.8 2.6 5 1.6 6.6-.3.6-.1.7.5.3.8-.5 1.3.2 1.4 1.8.2 4.7.3 5.1 1 5.6.4.3.9 1.7 1.1 3 .2 1.4.8 3.4 1.2 4.4.5 1.1.9 3.4.9 5.2.1 1.8.4 3 .7 2.8.5-.2 1.5 3.3 5.7 19.6.2.8.5 2.5.6 3.7 0 1.3.4 2.3.8 2.3.6 0 2.8 9 3.3 13 .1.8.6 2.4 1.2 3.5s1.3 3.4 1.6 5.2c.3 1.7.8 3.7 1.2 4.3.4.6.8 2.1 1 3.3.2 1.2 1.3 5.6 2.3 9.7 1.1 4.1 1.8 7.8 1.6 8.2-.2.3 0 .8.4 1 1.3.5 5.5 17.6 4.6 18.9-.4.7-.3.9.4.5s1.4.7 1.8 3.1c.4 2.1 1 4.5 1.5 5.4.5 1 .3 2.1-.4 2.9-.9 1-.9 1.1 0 .6.8-.4 1.5.3 1.8 2.1.4 1.5 1.2 4.8 2 7.3.7 2.5 1.9 7 2.6 10 .7 3 1.4 5.7 1.4 6 .1.3.5 1.3.9 2.2.5 1 .5 2.5.2 3.4-.3.8-.2 1.2.4.9.5-.3 1.2 1.1 1.5 3.2 1 5.8 1.3 6.3 3.1 5.6 1.2-.4 1.5-.3 1 .5-.4.7-.2 1.2.4 1.2.6 0 .8.5.4 1.2s-.3.8.5.4c.6-.4.8-1.2.5-1.8-.5-.7-.2-.8.6-.3.7.4 1.6.2 2.1-.6s.9-.9.9-.3c0 .7 2.5 1.1 7.3 1 9-.2 9.9.1 9.2 2.8-.5 1.7-.3 1.7.9-.4.8-1.4 1.8-2.3 2.2-2.2.4.2 1-.2 1.4-.8.6-.9 1-.7 1.4.6.3 1.1 1.5 2.5 2.7 3.2 2.1 1.3 2.1 1.3-.2-1.9-1.2-1.8-1.6-2.8-.8-2.3.7.5 2.8 1 4.4 1.1 4.6.2 4.7.2 4 1.3-.4.6-.3 1 .2.9 2.1-.4 3.4.2 2.8 1.2-.4.6.2.5 1.3-.2 1.2-.7 1.8-1.7 1.5-2.2-.3-.5-.9-.3-1.4.4-.7 1.1-.9 1.1-.9.1 0-.7-.5-1-1.2-.6s-.8.3-.4-.5c.4-.6 1.2-.9 1.7-.6.5.4.9 0 .9-.7s.7-.2 1.6 1c.8 1.2 1.2 2.7.9 3.2-.3.6-.4 1-.1 1 .3 0 1-1 1.7-2.1.9-1.7.8-2-.3-1.3-1.1.6-1.1.5.1-.9 1-1.2 1.8-1.4 3.1-.7 1.2.7 2 .6 2.3 0 .3-.6.4-.5.3.2-.2.7-1 1.2-1.8 1-.9-.1-1.8.7-2.1 2-.5 1.9-.4 2.1.6.8 1.5-1.9 3.9-1.9 6.2 0 1.8 1.4 1.8 1.4.1-1.2-1.7-2.7-1.7-2.7.3-2.3 1.2.2 2.1-.1 2.1-.8 0-.8.3-.8.9.1 1 1.7 2.1 1.7 3.1.2.5-.8.9-.7 1.3.5.4.9.3 1.4-.1 1.1-.4-.2-.9.5-.9 1.7-.2 2-.1 2 .8.4.6-.9 1.5-1.7 2-1.7.6 0 .7.6.3 1.2-.4.7-.4 1 .1.6.4-.4 1.5-.2 2.4.5 1.4 1 1.4 1 .4-.4-.7-.9-.9-2-.5-2.4.4-.5.2-.5-.5-.1-1.4.8-2.8-1-1.4-1.8.5-.4 1.8.6 2.9 2 1.6 2.3 2 2.4 2.5 1 .5-1.1.3-1.5-.5-1-.7.4-.8.3-.4-.5.4-.6 1.2-.9 1.7-.6.5.4.9.1.9-.6 0-.9.3-.9 1.4 0 1 .8 1.6.9 1.9.1.3-.6.4-.5.3.2-.2.7-1 1.2-1.8 1-.9-.1-1.8.7-2.1 2-.5 1.9-.4 2.1.6.8.7-.8 1.8-1.5 2.5-1.6 2.6-.2 3.2-.4 3.1-1.2-.3-1.9.2-2.3 1.6-1.2.8.7 1.5.9 1.5.6 0-.4.9-.2 2 .4 1.1.6 1.8 1.6 1.4 2.1-.4.6.4.5 1.7-.2 2.8-1.5 2.9-1.5 4.1.3.8 1 .9 1 .5-.2-.2-.8-1-1.4-1.6-1.3-.6.2-1.1-.2-1.1-.7 0-1.3.6-1.3 3.1.1 1.1.5 1.7 1.4 1.4 2-.4.5-.2.9.3.9.6 0 1.3-.7 1.6-1.6.4-1 .2-1.3-.7-.8-.8.5-.8.2.2-.9 1-1.2 1.8-1.4 3.1-.7 1.2.7 2 .6 2.3 0 .3-.6.4-.5.3.2-.2.7-1 1.2-1.8 1-.9-.1-1.8.7-2.1 2-.5 1.9-.4 2.1.6.8 1.5-1.9 3.9-1.9 6.2 0 1.8 1.4 1.8 1.4.1-1.2-1.7-2.7-1.7-2.7.3-2.3 1.2.2 2.1-.1 2.1-.8 0-.8.3-.8.9.1.4.8 1.1 1.3 1.5 1.3 2.2-.3 2.7.1 2.1 2.2-.5 1.9-.4 1.8.9-.4 1.2-2.1 2.1-2.5 4.2-2.1 2.3.4 2.6.2 2.2-1.5-.3-1.2-.1-2.7.4-3.4.8-1.1.9-1 .4.3-.3 1-.1 1.8.4 1.8s1-1 1.2-2.3c.2-1.2.9-2.1 1.6-1.9.8.1 1.1-.2.8-.7-.4-.5-.1-1.1.6-1.3.8-.3.6-.7-.5-1.1-.9-.3-1.6-.3-1.4.1.1.4-.2.8-.7.9-.5.1-1.3.7-1.7 1.5-.5.8-.9.9-.9.2 0-.6.7-1.7 1.5-2.4 1.2-1 1.3-1.6.4-2.6-1.1-1.3-.5-1.8 1.4-1.5.5.1.6-.8.2-1.9-.4-1.1-.2-2 .4-2 .6 0 1.1-.7 1.1-1.6 0-.9-.5-1.2-1.2-.8-1 .6-.9.3 0-.8.8-.9 2-1.4 2.8-1.1.9.3 1.4 0 1.2-.8-.2-.8.2-1.3.9-1.2.7.2 1-.4.7-1.2-.7-1.7-2.5-2-2.1-.4.1.6-.5 1.4-1.3 1.6-1.3.4-1.3.3 0-.6 1.3-1 1.3-1.1 0-1.1-.8-.1-.3-.7 1.3-1.6 2.8-1.5 3.7-2.7 1.3-1.8-.8.3-1.7 0-2.2-.7-.4-.7-.3-1 .2-.6.5.3 1.7 0 2.6-.7 1.6-1.2 1.6-1.4-.3-3.5-1.8-2-1.9-2.2-.4-1.9 1 .2 2-.3 2.3-1.1.3-.8 0-1.1-.6-.7-.6.3-1.4.1-1.8-.5-.4-.7-.3-.9.4-.5.6.3 1.3.2 1.6-.3.4-.5.2-1.2-.4-1.6-.5-.3-1-1.2-1-1.8 0-.7.4-.6 1 .3.8 1.3 1 1.2 1-.3 0-.9.5-1.7 1.1-1.7.5 0 .7.4.4 1-.4.6.1.7 1.1.3 1.6-.6 1.6-.7-.3-1.6-3.7-1.6-1.3-9.3 2.5-8 1.1.3 1.3.2.6-.4-.6-.4-1-1.6-.9-2.5.2-1.1-.2-1.5-1.3-1.1-1.5.4-1.5.3-.2-.6 1.1-.8 1.8-.7 2.6.4 1.9 2.5 2.6 1.7.8-1-.9-1.4-2-2.2-2.5-1.9-.5.3-.9 0-.9-.6 0-.7.6-1 1.4-.7.8.3 1.7 0 2-.8.3-.8 0-1.3-.7-1.1-.7.1-.9.1-.4-.1.4-.3.7-1.1.7-1.8 0-.8.4-1.7 1-2 .6-.4.7.1.4 1.2-.5 1.5-.4 1.5.4.3.6-.8.9-1.7.6-2.1-.2-.4.4-1 1.3-1.2 1.6-.4 1.6-.5-.1-.6-1.9-.1-1.9-.1 0-2.3 1.5-1.9 1.6-2 .2-.9-1.2.9-1.8 1-1.9.2-.4-3.7-.2-4.6 1.1-4.7.8-.1 2-.3 2.5-.4.6-.1 1.3-.2 1.8-.1.9.1.9-1.3 0-2.2-.3-.4-1.2.1-1.9 1.1-.9 1.1-1.3 1.3-1.4.4 0-.7-.4-1.1-.8-.8-.5.3-.9-.1-.9-.9 0-1.1.4-1.2 1.4-.4 1.5 1.3 1.7.5.4-2-.7-1.3-.6-1.8.4-1.8.7 0 1.2.5 1.1 1.1-.2.6-.1.8.1.3.3-.4 1-.4 1.5-.1.6.4.8.2.4-.4-.3-.5-.1-1.2.6-1.4.7-.3.5-.7-.6-1.1-1-.4-1.5-.3-1.1.3.4.6-.1.7-1.2.3-1.4-.6-1.2-.9 1.5-2 2.8-1.2 3.1-1.6 2.2-3.3-.6-1.1-.8-2-.4-2s-.1-.9-1-1.9c-1.8-1.9-.9-3.4 1.6-2.8.7.2 1 .2.5 0-.4-.3-.4-1-.1-1.5.4-.7.2-.8-.4-.4-.8.5-1 .1-.5-1 .5-1.3.3-1.5-.8-.9-.8.5-.7 0 .4-1.2 1-1.1 1.7-2.4 1.6-2.9-.3-2 .2-3.4 1.2-3.4.8 0 .8.4.1 1.3-.8 1-.6 1.6.9 2.5 1.1.7 1.9.8 1.9.2 0-.5-.4-1-1-1-.5 0-1-.5-1-1.1 0-.5.4-.8.9-.4 1.6.9.2-3.9-1.4-5.1-1.4-1-1.4-1.2 0-1.8.9-.3 1.3-.2 1 .4-.3.6-.1 1 .4 1 .6 0 1.1-.9 1.1-2.1 0-1.1-.4-1.8-.8-1.5-.4.2-.9-.4-.9-1.5-.1-1 .3-1.9.8-1.9.6 0 .8-.4.5-.8-.3-.5.1-.9.9-.9 1.3 0 1.2.4-.2 1.9-.9 1-1.1 1.8-.5 1.8 1.5 0 3.3-3.5 2.4-4.5-.4-.5.2-.5 1.3-.2 1.9.7 1.9.6.2-.7-1.3-1-1.4-1.5-.6-1.8.9-.3.8-.6-.3-1.1-1.3-.4-1.6-.1-1.3 1.4.2 1 0 1.9-.6 1.9-.5 0-.7-1-.5-2.3.2-1.2 1-2.1 1.9-2.1.9.1 1.8-.4 2.1-1.2.3-.8 0-1.1-.8-.8-.8.3-1.7 0-2.2-.7-.4-.7-.3-1 .3-.6 1.4.9 4.2-3.5 4.7-7.2.2-2.2 0-2.8-1.1-2.4-.9.3-1 .9-.4 1.7.9 1.2-.1 5-1.7 6-.5.3-.9-.1-.9-.9s.4-1.2.8-1c1.1.8 1.8-3.2.6-4.4-.7-.7-.6-1.2.5-1.6 1-.4 1.5-1.6 1.3-3.1-.3-2.6 1-4.1 2-2.4.4.6.1 1.7-.5 2.5-.7.9-.8 1.5-.2 1.5 1.3 0 2.3-2.6 1.6-4.5-.4-.8-.1-1.5.5-1.5.7 0 .9-1 .5-2.8-1.2-5.7-1.2-7.2-.1-6.5.6.4.8 0 .4-.9-.9-2.5.4-3 2.6-1.1 2 1.8 2 1.8.2-1-.9-1.5-1.3-2.7-.9-2.7.5 0 .2-.5-.6-1s-1-1-.4-1 1.1-.8 1.1-1.8c0-3.4.3-4.3 1.3-3.7.6.3 1 1.1 1 1.6 0 .6-.4.8-.8.5-.5-.3-.9.2-.9 1 0 1.2.3 1.3 1.3.2 1.6-1.6.7-6.1-1-5.1-.7.4-.6.1.1-.9.7-.8 1.1-1.7.8-2-.3-.3.2-1.1 1.2-1.9 1.5-1.2 1.6-1.2.8.1s-.6 1.3.7.2c.9-.7 1.7-2.3 1.7-3.5.1-5 .3-5.7 1-5.3.4.3.6-.7.6-2.2-.2-3.8.4-4.5 2.3-3 1.5 1.2 1.6 1.1.3-.5-1.6-2.1-1.6-2.1-3.5-.1-.9.8-1.6 1.1-1.6.5 0-.5.5-1.3 1-1.6.6-.4.8-1.1.5-1.6-.3-.5.1-.6 1-.3 1.3.5 1.4.2.7-1.7-.9-2.5-.6-4.9.7-4.9.4 0 .8.7.8 1.5s-.4 1.2-.9.9c-.4-.3-.5.2-.2 1.1.7 1.9 1.4 1.4 1.8-1.1.2-1 .9-2 1.6-2.2.8-.3 1 0 .5.8-.6.9-.4 1.1.5.5 1-.6.9-1.1-.5-2.2-1.1-.7-1.5-1.3-1.1-1.3.4 0 0-.7-.8-1.6-.9-.8-1.6-2.1-1.6-2.7 0-.8.3-.8.8-.2.4.5 1.6 1.7 2.7 2.5l2 1.5-2-2.4c-1.7-2.1-1.7-2.3-.3-1.8 1.2.4 1.5.2 1.2-.8-.3-.8-1.2-1.1-1.9-.9-.9.4-1.3-.1-1.2-1.3 0-1.1.7-2 1.4-2 .8 0 .9.4.3 1.2-.6.7-.3 1.1 1 1.1 1.5 0 1.6-.4.9-1.8-.5-1-.6-1.8-.2-1.8.4 0 0-.7-1-1.4-1.6-1.2-1.6-1.4-.1-2 1.3-.5 1.4-.9.5-2-.8-.9-.8-1.6-.2-2 .6-.4.9-1.2.7-1.9-.1-.7-.1-.9.1-.4.3.4 1 .4 1.6 0 .7-.4.6.1-.2 1-.7.9-1 1.7-.5 1.7s1.7-1.2 2.7-2.6c1.2-1.5 1.4-2.3.6-2.2-.7.2-1.3-.2-1.4-.9 0-.6-.3-1.5-.7-1.9-.4-.3-.5.4-.3 1.6.2 1.2.1 2-.2 1.6-.4-.4-.8-1.6-1-2.7-.3-1.7.1-1.9 1.9-1.3l2.3.7-2-2.3-2-2.3 2.1 1.1c1.8 1 2.1.9 2-.6 0-.9.5-1.6 1.2-1.4 1 .2 1-.2.2-1.8-1.3-2.4-2.2-2.6-1.8-.4.2 1-.2 1.9-.8 2.1-.7.2-1.1-.6-1-2.1 0-1.3.5-2.2 1-1.8.5.3.6-.3.2-1.3-.3-1 0-2.8.9-4.1 1.1-1.7 1.2-2.4.2-2.7-.9-.4-.9-.6.1-.6.7-.1 1-.6.7-1.1-.4-.6-.1-1.7.5-2.5.7-.8.9-1.5.5-1.5s-.3-.6.2-1.3c.6-.6.9-2.2.8-3.4-.1-1.2.2-2 .7-1.7.5.3.6-.7.4-2.2-.3-1.5 0-3.4.6-4.1.6-.7.7-1.3.3-1.3-.4 0-.3-.6.2-1.3.6-.6.9-2 .8-3-.2-.9.1-1.7.6-1.7.6 0 .7-.5.3-1.2-.4-.7-.3-.8.4-.4.8.5 1-.5.7-3.1-.3-2.1-.2-3.3.3-2.7.4.6 1.8 1.6 3.2 2.3 2.2 1.1 2.3 1 .8-.2-1-.8-1.4-1.8-1-2.2.4-.5.1-.5-.5-.1-.7.4-1.4.2-1.4-.3-.1-.6-.2-1.7-.3-2.4-.1-.6 0-1.7.3-2.2.3-.6.6-1.5.6-2 .1-.6.6-.9 1.3-.8.6.2 1.6-.7 2.3-1.8.6-1.2.7-1.9.2-1.6-.4.3-1.4-.1-2-.9-1.1-1.1-.8-1.2 1.8-.9 2.4.3 2.8.1 2-.9-.7-.9-.7-1.6.1-2.4.8-.8.4-1-1.8-.7-1.6.2-2.4.2-1.7-.1.7-.3.9-1.3.6-2.2-.4-1.4-.3-1.5.6-.2.9 1.3 1.3 1.3 2.8-.4 1-1 1.2-1.6.6-1.2-.7.4-1.3.3-1.3-.3s-.8-.8-1.7-.5c-1.7.5-1.7.5 0-.6.9-.6 2.3-.8 3-.4.6.4.9.4.5-.1-.4-.4-.2-1.5.5-2.4 1.1-1.4 1-1.4-.5-.2-1 .7-1.8 1-1.9.5 0-.5-.2-1.6-.4-2.5-.1-.9.3-1.6 1.1-1.6 1.1 0 1.1.3.1 1.6-1 1.4-1 1.4.4.4.9-.7 1.8-1.1 2.1-.8.2.3.5-.2.5-1s-.4-1.2-.9-.9c-.4.3-.8-.2-.8-1.1 0-1 .5-1.3 1.2-.9.7.5.8.3.3-.6-.6-1-1.1-.9-2.1.5-.8 1-1.6 1.6-1.9 1.3-.3-.3.1-1.1.9-1.7.8-.7 1.2-1.9.9-2.7-.3-.8 0-1.4.7-1.4.6 0 .8.5.4 1.2-.4.6-.3.8.4.4.5-.3 1.2 0 1.5.6.2.7.4 0 .4-1.6 0-1.9-.2-2.4-.8-1.5-.7 1.1-.9 1.1-.9.1 0-.7-.4-1-1-.7-.5.3-1 .4-1 .1 0-.3 1-1 2.1-1.7 1.7-.9 2.3-.8 3 .2.6 1 .9 1 .9.2 0-.6-.5-1.5-1-1.8-.8-.5-.7-1.2.2-2.3 1.2-1.5 1.1-1.6-.4-.3-2.1 1.6-2.5-.1-.5-1.8 1-.8 1.7-.7 2.7.2 1.2 1 1.2.9.1-.5-.7-.9-1-2.2-.6-2.8 1.3-2.1 1.3-4.7-.1-4.7-1 0-1.1.4-.3 1.4.9.9.8 1.3 0 1.3-.7 0-.9.5-.5 1.2s.3.8-.4.4c-.8-.4-1-.2-.6.7.3.8-.3 1.7-1.3 2.1-1.4.6-1.5.4-.6-.5.6-.6.9-1.8.6-2.5-.3-.8 0-1.4.6-1.4s1-1 .7-2.3c-.3-2-.1-2.3 1.8-2 2 .4 2.6 1.9 5 11.6 1.5 6.2 2.9 12.3 3.2 13.7.3 1.4 2.2 9.7 4.4 18.5 2.1 8.8 4.1 17.1 4.3 18.5.2 1.4.6 3.2.9 4 1.8 4.7 4.9 21.1 4.2 22.1-.4.7-.3.9.3.6 1.1-.7 2.2 3.2 2.6 9 .1 1.7.5 2.9 1 2.6.6-.4.8.3 1 5.4.1 1 .5 2 .9 2.3.4.3.9 2.5 1 4.8.2 2.3.6 4.2.9 4.2.4 0 1.2 2.8 1.9 6.2.7 3.5 1.5 7 1.8 7.8.2.8.5 2.4.7 3.5.1 1.1.5 2.7.9 3.5 1.4 3.6 6.4 24.5 6 25.2-.3.4-.1.8.3.8.7 0 2.5 5.7 3.9 12.9.3 1.3.9 3.2 1.4 4.1.5 1 .7 1.9.5 2.2-.2.2.3 2.6 1.1 5.3.9 2.8 1.8 6.1 2 7.5.3 1.4 1 4.3 1.6 6.5.6 2.2 1.2 4.7 1.3 5.5.1.8.5 2.2.8 3 1 2.6 2.6 8.4 3.1 11 .3 1.4 1 4 1.5 5.9.6 1.9.9 3.7.6 3.9-.3.3 0 1.1.6 1.8s1.1 2.8 1.2 4.7c.1 1.9.5 3.3.8 3.2.9-.6 4 13.5 3.3 14.7-.5.7-.2.8.6.3 1-.6 1.2-.3.8 1.3-.4 1.2-.2 2.2.4 2.2.6 0 .8.6.5 1.4-.3.7-.2 1.7.2 2.2.4.5 1.4 3.6 2 6.9.7 3.3 1.9 7.7 2.7 9.7.8 2.1 1.2 3.8.9 3.8-.2 0 .2 1.8 1 3.9.7 2.2 1.1 4.2.8 4.5-.3.3-.1 1.1.4 1.8s2 5.6 3.3 10.8c1.2 5.2 3 12.2 4 15.5 1 3.3 2.1 7.4 2.5 9.2.4 1.9 1.1 3 1.8 2.7.7-.2 2 .8 2.9 2.3 1.5 2.5 1.7 2.6 1.5.6 0-1.2-.5-1.9-1.1-1.6-.5.3-.6.1-.2-.6.9-1.4 2.6-.5 2.6 1.4 0 .7.6 1.5 1.3 1.7 1.6.7 3.7-.1 3.7-1.4 0-.7-.5-.6-1.4.1-1.1.9-1.5.8-2-.5-.4-.9-.4-1.9-.1-2.2.3-.3.5 0 .5.6s.9 1 2 .9c1.1-.1 2-.6 2-1.2s.3-.7.8 0c1.1 1.6 4.6 1.9 3.6.3-.5-.9-.2-.8 1.1.2 2.1 1.7 2.4 1.7 3.7-.2.8-1 .9-.9.5.4-.4 1 .3 2.2 1.7 3.1 2 1.4 2.2 1.3 2.3-.6.1-1.1.7-2.5 1.4-3.1.9-.8 1-.8.5.1-.5.8-.1 1.3.9 1.3s1.3-.5.9-1.2c-.5-.7-.3-.8.6-.3 1 .6.7 1.3-1.1 2.7l-2.4 1.8 2.5-.8c1.4-.5 3.1-.7 3.7-.5.7.3 1.3 0 1.3-.7 0-.6-.4-.8-1-.5-.6.3-1 .2-1-.3 0-.6.7-1.3 1.6-1.6.8-.3 1.3-.2 1 .2-.2.4-.1 1.4.4 2.2.8 1.3 1.1 1.3 2.2.1 1-1 1-1.2.1-.7-.7.4-1.3.2-1.3-.3 0-1.3 1-1.4 2.9-.2.9.6 1 1.1.2 1.5-.6.4-1.1 1.3-1.1 1.9 0 .7.9.1 1.9-1.2 1.2-1.5 2.4-2.2 3.4-1.8.9.3 1.9.2 2.2-.4 1.1-1.7 2.6.2 2 2.4-.5 1.7-.4 1.9.4.7 1.3-1.9 4.1-1.9 6.6 0 1.8 1.4 1.9 1.3.7-.1-.6-.9-.8-2-.4-2.4.4-.5.1-.5-.5-.1-.9.5-1.1.2-.6-.9.3-.9.9-1.3 1.2-.8 1 1.4 4.4 1.6 3.5.2-.4-.8-.3-1 .4-.5.9.5.9 1.3.1 2.7-.6 1.2-.8 2.3-.5 2.6.3.3 1.1-1 1.9-2.8 1.1-2.7 1.4-3 2-1.6.4 1 .3 1.6-.1 1.3-.4-.2-.9.5-.9 1.7-.2 2-.1 2 .8.4.6-.9 1.5-1.7 2-1.7.6 0 .7.6.3 1.2-.4.7-.4 1 .1.6.4-.4 1.5-.2 2.4.5 1.4 1 1.4 1 .4-.4-.7-.9-.9-2-.5-2.4.4-.5.2-.5-.5-.1-.6.3-1.5.1-1.9-.5-.4-.8-.3-.9.4-.5s1.2.1 1.2-.6c0-.8.3-.9.8-.3 1.1 1.6 4.6 1.9 3.6.3-.6-1-.5-1 .7-.2.8.7 3 1.1 4.9 1.1 3.1-.1 3.5.1 3.2 2.3-.1 1.9 0 2.2.8 1 1.2-1.9 4-1.9 6.5 0 1.8 1.4 1.9 1.3.7-.1-.6-.9-.8-2-.4-2.4.4-.5.1-.5-.5-.1-.9.5-1.1.2-.6-.9.3-.9.9-1.3 1.2-.8 1 1.4 4.4 1.6 3.5.2-.4-.8-.3-1 .4-.5.9.5.9 1.3.1 2.7-.6 1.2-.8 2.3-.5 2.6.3.3 1.1-1 1.9-2.8 1.1-2.7 1.4-3 2-1.6.4 1 .3 1.6-.1 1.3-.4-.2-.9.5-.9 1.7-.2 2-.1 2 .8.4.6-.9 1.5-1.7 2-1.7.6 0 .7.6.3 1.2-.4.7-.4 1 .1.6.4-.4 1.5-.2 2.4.5 1.4 1 1.4 1 .4-.4-.7-.9-.9-2-.5-2.4.4-.5.2-.5-.5-.1-.6.3-1.5.1-1.9-.5-.4-.8-.3-.9.4-.5s1.2.1 1.2-.6c0-.8.3-.9.8-.3 1.1 1.6 4.6 1.9 3.6.3-.6-1.1-.5-1.1.8 0 .9.7 2 1.2 2.4 1.1 2.7-.5 3.4.2 2.4 2.1-.8 1.6-.8 1.8.4 1.4 1.5-.6 1.6-2 .3-4.1-.5-.7-.1-1 1-.8 1 .2 1.8.4 1.8.5 0 .1.8.3 1.8.5.9.2 1.7-.2 1.7-.8 0-.5.2-.8.5-.5.3.3.2 1.3-.1 2.2-.5 1.4-.9 1.5-1.5.4-.5-.8-.9-.9-.9-.2 0 .6.8 1.8 1.8 2.5.9.7 1.4.9 1 .5-.4-.5-.3-1.5.3-2.2.8-1 1.6-1.1 3.1-.3 1.1.6 2.2.8 2.6.5.3-.3 0-.6-.7-.6s-.9-.4-.6-1c.3-.5 0-.7-.8-.4-.8.3-1.8 0-2.2-.6-.3-.6-.3-1 .2-.9 2 .3 2.7-.2 1.3-1.1-1.1-.7-1.1-1-.2-1 .7 0 1-.5.6-1.2-.5-.7-.3-.8.6-.3 1 .6 1.2.4.7-.9-.5-1.4-.3-1.7.8-1.2.8.3 1.4 0 1.2-.6-.1-.6.4-1.3 1.2-1.6.9-.3 1.1 0 .6.8-.6.9-.4 1.1.4.5.9-.5 1-1 .2-1.8s-1.4-.8-2.3.1c-.7.7-1.7 1.2-2.2 1.2-.6 0-.4-.5.4-1 1.3-.9 1.3-1.1 0-2.1-1.2-.8-1.1-.9.5-.5 2.7.7 5.4-.8 3-1.7-1-.5-1.4-.3-.9.5.4.7.3.8-.4.4-2.3-1.4-1.2-2.8 1.6-2.2 1.5.3 2.1.3 1.4 0-.6-.3-.9-1.1-.6-1.6.5-.7.2-.8-.6-.3-.9.6-1 .2-.5-1.5.5-1.5.4-2-.4-1.6-.6.4-1.1.2-1.1-.3 0-1.8 2.1-1.2 4.1 1.1l2 2.3-1.7-2.8c-1.3-2.1-1.3-2.7-.3-2.7.7 0 .3-.7-.9-1.6-1.8-1.2-2-1.9-1.2-2.9.7-.8.8-2 .4-2.6-.4-.7-.3-.9.3-.6.6.4 1.3 0 1.7-.8.3-.8 0-1.5-.7-1.5-.8 0-.6-.4.3-1 .8-.5 2-1 2.5-1 .6 0 .3.5-.5 1s-1 1-.5 1c.6-.1 1.9-.8 3-1.6 1.2-1 1.4-1.4.5-1.1-.8.2-2.3 0-3.3-.5-1.4-.7-1.5-1.3-.7-2.9.6-1.1 1.5-1.7 2.1-1.4.5.4.9.2.9-.4 0-.5-.4-1.2-1-1.6-.5-.3-.6-1.3-.3-2.1.4-1.2.8-1.3 1.4-.3.4.7.5 1.7.3 2.1-.3.4.2.5 1.1.1.9-.3 1.3-.9.8-1.2-.5-.3-1.3-1.4-1.6-2.5-.6-1.4-.3-1.7.8-1.2.8.3 1.4.2 1.4-.2-.1-.4-.1-1.6 0-2.7.1-1.6.3-1.7 1.1-.5.7 1.2.9 1 1-.8.1-5.6.2-6.2.9-5.7.5.2.7-.9.6-2.6-.2-1.9.3-3.3 1.2-3.6 1.2-.5 1.2-.7.1-1.4-.7-.5-1.7-.9-2.3-.9-.5 0-.3.5.5 1 .9.6 1 1 .3 1-1.6 0-2.6-1.7-1.4-2.5.5-.3.8-1.4.6-2.5-.3-1.6 0-1.8 2.1-.9 3.4 1.2 3.7 1.2 2.2-.5-.7-.8-1.6-1.2-2-1-.4.2-1-.1-1.4-.7-.4-.8-.3-.9.5-.5.8.5 1 0 .7-1.8-.3-1.8-.1-2.4.6-2 .7.5.9.1.5-.9-.6-1.7 1.9-5.1 3.2-4.3.4.3.8-.4.8-1.5.1-1-.2-1.9-.8-1.9-.5 0-.8.5-.6 1.1.1.6-.5 1.4-1.3 1.6-1.2.4-1.2.3-.1-.5 1.1-.8 1.1-1 0-1.5-1.1-.4-1.1-.6-.1-.6.7-.1 1.1-.5.7-1-.3-.6.3-.8 1.5-.6 1.1.2 2.3-.1 2.6-.7.4-.6.3-.8-.3-.5-.6.4-1.9 0-2.9-.8-1.7-1.3-1.6-1.3 1.6-1 1.9.2 2.7.1 1.8-.1-1-.3-1.8-1-1.8-1.5 0-.6-.5-.7-1.1-.3-.7.4-.6-.3.2-1.7.7-1.3 1.2-2.5 1.1-2.7-.5-.7-.1-2.2.6-2.2.5 0 .9.7.9 1.5s-.3 1.2-.7 1c-.3-.2-.7.6-.7 1.7-.2 2.3 1.6 1.2 2.1-1.3.2-.8.7-2.2 1.1-3.3.8-1.9-1.1-4-2.9-2.9-.5.3-.6.1-.3-.4.4-.6 2-.9 3.7-.8 1.6.1 2.7-.1 2.4-.6-.3-.5-1-.7-1.5-.3-.5.3-.9-.7-.8-2.3.1-1.5-.2-3.7-.7-4.8-.7-1.7-.6-1.8.8-.5.9.8 1.4 2.3 1.3 3.2-.2 1 0 2 .5 2.3.4.3.7-.3.6-1.2-.2-1 .2-2.1.8-2.5.8-.5.7-.8-.2-.8-.8 0-1-.5-.5-1.2 1.2-2 1.2-3.9.1-3.2-.6.4-.9.1-.6-.7.3-.8 1-1.4 1.6-1.4 1.2 0 1.3-1 .5-3.2-.3-.7-.3-1.8 0-2.5.2-.7.1-2-.4-2.9-.5-1.1-.3-1.6.6-1.6.8 0 1.1.5.8 1-.4.6-.1.7.7.2 1-.6 1.2-.4.6 1.1-.5 1.4-.4 1.6.5.7.9-.9.8-1.6-.3-3.2-.8-1.2-1.7-1.9-2-1.6-.2.3-.5-.1-.5-.9 0-1.5 2.1-1.6 3.4-.1.4.4.2.5-.6 0-.9-.5-1.2-.4-.7.3.4.6 1.4.8 2.3.5 1.1-.4 1.3-.8.5-1.1-1.5-.5-1.6-3.2 0-3.2.6 0 .8-.3.5-.6-.4-.4-1.3-.1-2.1.5-1.1.9-1.6.9-2.2 0-.4-.7-.3-.9.3-.6.6.4 1.3 0 1.7-.8.3-.8 0-1.5-.7-1.5-.8 0-.9-.2-.1-.8.6-.4 1-1.4.9-2.3-.2-.9.3-1.6 1.1-1.6.7 0 1 .5.6 1.1-1.2 2-1 3.5.4 4 1.1.4 1.2.2.4-1.4-.7-1.2-.7-2.1 0-2.5.5-.3 1-.1 1 .6s.3.9.6.6c.4-.4.2-1.3-.4-2-.9-1-.7-1.9.5-3.7.9-1.3 1.1-2 .5-1.6-1.7 1-1.5-1 .3-2.7.9-.9 1.1-1.7.4-1.9-1.4-.5-1.2-8 .4-10.5.5-.7.6-1.7.3-2.1-.3-.5 0-.9.7-.9s2.1-.4 3.1-.9c1.3-.5 1.7-.4 1.2.4-.3.6-.2 1.3.3 1.6.5.4.8-.2.7-1.1-.2-.9-.8-1.9-1.4-2.1-.7-.2-.9-.9-.6-1.4.4-.7.2-.8-.5-.4-.6.4-.9 1.1-.7 1.5.3.4-.1.8-.8.8-.7 0-1.3-.6-1.3-1.4 0-.7.2-1.1.5-.9.2.3 1.4-.5 2.6-1.7l2.2-2.2-2-1.8c-1.2-1-1.5-1.5-.7-1.1 1.1.5 1.3.3.8-1-.5-1.1-.3-1.5.5-1s.9.2.4-1.1c-.5-1.5-.4-1.6.9-.5.9.7 1.8 1 2.2.6.3-.3.1-.6-.5-.6-.7 0-1.2-.7-1.2-1.6 0-.9-.5-1.2-1.2-.8-1 .6-1 .4-.1-.6 1.1-1.2 1.6-1.1 2.9.6 1.5 1.8 1.5 1.8.4-.3-.5-1.2-1.5-2.5-2-2.8-.6-.3-1-1.2-1-1.8 0-.8.3-.8.8-.2.4.5 1.4 1.6 2.3 2.2 1.3 1 1.6 1 1.6-.2 0-.8-.4-1.2-.9-.9-.7.5-1-.3-.7-2.2 0-.4-.5-1.1-1.3-1.5-.9-.6-.9-.9-.1-.9.7 0 1.7.8 2.2 1.7 1 1.7 1 1.7 1.1.1 0-.9-.8-2.2-1.7-2.7-1-.6-1.2-1.1-.5-1.1.6 0 1.2-.5 1.2-1.1 0-.5-.4-.7-1-.4-1.6 1-1.1-.1.7-1.6.9-.8 1.4-.9 1-.3-.3.6 0 1.1.7 1.1s1.3-.6 1.3-1.3c0-.7-.4-1.1-.8-.9-1.2.8-1.9-3.7-.8-5.4.8-1.3.9-1.2.5.4-.4 1.3.1 2.4 1.4 3.3 1.2.7 2 .8 2 .2 0-.5-.4-1-1-1-.5 0-1-1.1-1-2.4 0-1.3-.5-2.6-1.2-2.8-.7-.3-.5-.7.6-1.1.9-.4 1.5-.3 1.2.1-.3.5.1.9.9.9 1 0 1.1-.5.4-1.8-1.3-2.5-1.1-2.9.9-2.3 1.2.4 1.3.3.4-.3-1.3-1-.6-4.7.8-3.8 1.2.7.3-4.4-1.1-6.1-1-1.3-.8-1.3 1.4-.5 1.9.7 2.8.7 3.3-.2.4-.7.4-.9-.1-.5-.4.4-1.4 0-2.2-1-.9-1-1.2-1.1-.7-.2.4.8.3 1.1-.1.7-.5-.4-1-1.4-1.1-2.2-.2-1.2.2-1.3 1.8-.4 1.1.6 2.2.8 2.6.5.3-.3 0-.6-.7-.6s-.9-.5-.6-1c.4-.6.1-.9-.5-.8-.7.2-1.4-.5-1.5-1.5-.2-1 .1-1.4.8-1 .6.4.8 0 .4-1-.4-1.1-.2-1.4.9-1 1 .4 1.2.9.4 1.8-.8.9-.6 1.4.4 1.8 1.1.4 1.3.1.9-1-.4-1-.2-1.4.5-.9.6.3 1.4.2 1.7-.4.4-.6.1-.9-.6-.8-1.5.3-1.9-2.2-.7-3.9.6-.7.4-1.4-.3-1.9-.8-.4-.9-.3-.5.4.5.8.1 1-.9.5-1.3-.4-1.4-.8-.4-1.3.7-.5 1.8-.6 2.6-.3.7.3 1.3 0 1.3-.7 0-.6-.4-.8-1-.5-.5.3-1 .1-1-.5s-.4-.9-.8-.6c-.5.3-.9-.1-.9-.8 0-.7.6-1.3 1.3-1.3.7 0 1.1.3.9.7-.2.4.2.7 1 .7.7 0 1.2-.8 1-1.9-.2-1 .4-2.3 1.3-2.9 1.5-.9 1.5-1 .1-.6-.9.3-2.1.1-2.7-.5-1.3-1.3-.4-4 1-3.2.6.4.5 1-.3 1.5-1.1.7-1 .9.5.9 1.2 0 1.6-.5 1.2-1.6-.3-.9-.6-2-.6-2.5 0-.6-.6-.7-1.2-.3-1 .6-1 .4-.2-.7.6-.8 1-2.1.9-3-.3-1.8 1-1.9 3.3-.5 1.1.7 1.1.4.1-1.2-.7-1.2-1.8-1.8-2.4-1.4-.5.3-.4-.2.4-1.1.7-.9 1.1-2.3.8-3-.3-.8.1-1.4.8-1.4.8 0 1.3.5 1.2 1-.1.5.5 1.2 1.3 1.4 1.2.4 1.2.3.1-.5-1.1-.8-1.1-1 0-1.5.9-.4 1-.6.2-.6-.7-.1-1-.8-.7-1.6.4-.8 1-1.2 1.5-.9 1.5.9 1-.3-.8-1.7-1.4-1.2-1.6-1.2-.8 0 .5 1 .4 1.2-.3.7-.8-.5-1-.2-.6.8.3.9.2 1.6-.4 1.6-1.1 0-1-1.3.3-4.4.5-1 .9-2.8 1-4 .3-2.8 2.4-7.6 2.4-5.5.1.8-.4 2-1.1 2.7-.9.9-.9 1.2.2 1.2 1.3 0 1.3.2 0 1s-1.3 1 .1 1c2 0 2.5-7 .6-8.2-.8-.5-.7-.8.5-.8.9 0 1.8.4 2 .9.2.5 1 .2 1.8-.7 1.3-1.4 1.2-1.5-.3-.9-.9.3-1.9.2-2.2-.4-.4-.5-1.2-.6-1.8-.2-.7.3-.5-.2.4-1.3.9-1 1.5-2.6 1.4-3.5-.2-1.1.3-1.5 1.4-1.2 1 .2 2.4-.4 3.1-1.4 1.2-1.5 1.2-1.6 0-.6-1.6 1.5-3 1.7-3 .5 0-.5 1-1.4 2.3-2 1.2-.6 1.6-1.1.9-1.1-.7-.1-1.1-.5-.7-1 .3-.5.1-1.2-.4-1.6-.6-.3-.8.3-.6 1.5.2 1.1 0 2-.5 2-1.1 0-.5-6.6.8-8.3.5-.6.8-2.3.6-3.7-.1-1.4 0-1.9.2-1.2.3.6.9 1 1.3.8.4-.3.8.1.8.9s-.4 1.2-.9.9c-.5-.3-.7-.2-.6.3.1.4-.3 1.8-1 2.9-1.1 2.1-.7 3.4.9 3.4.5 0 .5-.7.2-1.7-.4-1-.2-1.4.5-.9.6.3 1.4.1 1.8-.5.4-.8.3-.9-.4-.5-1.3.8-1.7-.6-.5-1.8 1.4-1.4 1.2-4.4-.3-5-.8-.3-1.2-1-.9-1.6.7-1.1 1.5-4.4 1.9-7.5.2-1.2.9-1.9 1.9-1.7 1.1.2 1.5-.2 1.1-1.3-.3-.8-1.1-1.2-1.7-.8-.6.3-.3-.4.6-1.6.8-1.3 1.3-3 1-3.7-.3-.8 0-1.4.7-1.4.6 0 .9.4.6.9-.3.4.1 1.7 1 2.7 1.4 1.8 1.5 1.8.4-.4-.8-1.7-.8-2.2.2-2.2.6 0 .3-.7-.8-1.5-1-.8-1.4-1.5-.9-1.5.6 0 .3-.5-.5-1.1-1.3-.9-1.3-1 0-.6.8.2 1.4.9 1.3 1.5-.3 1.3 2.4.9 3.9-.6.9-.9.6-1.1-1-.7-2.6.5-2.8-.7-.6-2.9 1.4-1.4 1.4-1.6 0-1.6-.8 0-2 .8-2.6 1.8-.8 1.1-1 1.2-.7.2.2-.8 1.4-2 2.6-2.6 3.3-1.7 4.9-3.4 3.1-3.4-.7 0-1-.3-.7-.7.4-.3-.1-1.6-1-2.7l-1.8-2 3 1.9c2 1.2 2.6 1.4 1.8.4-1-1.2-1-1.8 0-2.9.8-.9.9-1.1 0-.6-.8.4-1.1-.2-.9-2.1.2-1.6-.2-3.1-.8-3.5-.8-.5-.7-.8.2-.8.7 0 1-.4.7-1-.3-.5-.2-1.8.4-2.7.8-1.4.9-1.1.6 1.5-.2 2.2 0 3 .7 2.6.7-.5.9-.1.5.9-.9 2.4 0 2.1 1.3-.3.8-1.5.8-2-.2-1.8-.8.2-1.1-.8-.9-3.1.2-2.4-.1-3.1-1-2.6-.8.5-1 .4-.5-.4.6-.9 1.2-.9 2.4.1 1.5 1.2 1.5 1-.1-1.4-1-1.6-1.3-2.9-.7-3.3 1-.6 1.1-.5 1.4 1.5.2 1.9 2.3 3.2 3.1 1.9.5-.7.4-1-.3-.5-.6.3-1.3.2-1.6-.3-.4-.5-.2-1.2.4-1.6.5-.3 1-1.2 1-1.8 0-.7-.4-.6-1 .3-.8 1.3-1 1.2-1-.3 0-1-.4-1.6-.8-1.3-.5.3-.9-.1-.9-.9 0-1 .4-1.2 1.2-.5.7.5 1.5.7 1.8.3.9-.9.9-2.4 0-2-.8.2-1.4-.8-1.2-1.8.1-.3.2-1.4.3-2.5.1-2.3 1.9-2.8 2.2-.5.1.8-.1 1.3-.5 1-.4-.2-.8.2-.8.9s.6 1.3 1.2 1.3c1.2 0 1.2-1 .1-7.9-.2-1.6 0-3.1.5-3.4.6-.4.6-1.1-.1-1.9-.8-.9-.6-1.4.6-1.9.9-.4 1.9-.4 2.2-.1.3.3 0 .5-.6.5-.7 0-1.2.5-1.2 1.2s.7.5 1.8-.5c.9-.8 2.2-1.6 2.7-1.7.6-.1 1.2-.4 1.5-.7.3-.2-.2-.3-1-.1-.8.2-1.5-.3-1.6-1-.1-.6-.2-1.7-.3-2.3 0-.5-.5-.8-.9-.5-.4.2-.8-.4-.8-1.4 0-1 .5-1.6 1-1.3.5.4.7-.1.3-1-.3-.9-.2-1.9.3-2.2.5-.3.7-2.2.4-4.3-.4-3.4-.3-3.5 1-1.7 1.4 1.9 1.5 1.7 1.2-2.2-.2-2.3 0-4 .5-3.8.4.3 1 .1 1.4-.5.4-.6 1.1-.7 1.7-.4.6.4.8.2.4-.4-.3-.6-1.6-.9-2.8-.7-1.1.3-1.7.1-1.4-.3.4-.4 1.1-.7 1.4-.7.4 0 1.3-.4 2-.8.7-.5 1.2-.4 1.2.2 0 .6.5 1.1 1 1.1.6 0 .5-.8-.2-1.9-.8-1.3-1.6-1.7-2.3-1.1-.8.7-1.2.5-1.2-.5 0-.8.4-1.2.8-.9.4.2 1 0 1.4-.6.4-.6 1-.8 1.4-.5.5.2.8-.6.8-1.8.1-4.2.3-4.8 1.6-4.1.6.4.1-.5-1.3-2.1-2.4-2.7-2.4-2.7-.2-1.6 1.2.6 2.2.9 2.2.5 0-.3-1-1.5-2.2-2.6-1.3-1.1-1.7-1.6-.9-1.2 1 .5 1.3.3.8-.9-.4-1.1-.2-1.4.9-1 1.1.4 1.2.9.3 1.9-.8 1-.8 1.4 0 1.4.6 0 1.2-.5 1.2-1 .1-.6.2-1.5.3-2.1 0-.6.9-1.6 1.8-2.3 1-.7 1.5-1.6 1.2-1.9-.4-.3-1.4.3-2.4 1.5-1.3 1.6-1.9 1.8-2.5.8-.5-.9-.4-1.1.3-.6.7.4 1.2.3 1.2-.3 0-.5-.3-1.1-.7-1.4-.5-.2-.3-.2.4-.1 1.4.3 2.5-2.3 1.3-3.1-.6-.4-1-.1-1 .6s-.3 1-.6.6c-.3-.3-.1-1.4.5-2.4s1.1-1.3 1.1-.6c0 .6.9 1.1 1.9 1 1.1 0 1.7-.5 1.5-.9-.3-.5-.9-.6-1.4-.3-.4.3-1.1-.2-1.4-1.1-.4-1.1-.2-1.5.7-1.1.8.3 2 .1 2.8-.5 1.1-.8 1-.9-.3-.4-1 .3-1.8.1-1.8-.4s-.8-.7-1.7-.4c-1.7.5-1.7.5 0-.6 1.9-1.2 2.4-3.6.5-2.4-.7.4-.8.3-.4-.4.4-.6 1.4-.8 2.4-.5 1.4.5 1.4.3-.3-1.7-1.1-1.3-1.5-2-.9-1.7.8.5 1.2-.6 1.1-3.3l-.1-4H561.3l-1.1 5.2c-.6 2.9-1.3 6.4-1.6 7.8-.2 1.4-3.6 18.7-7.6 38.5-4 19.8-7.4 36.9-7.6 38-.2 1.1-1.5 7.4-2.9 14.1-1.3 6.6-2.7 13.8-3.1 16-.3 2.1-.7 4.1-.9 4.4-.2.3-.6 2.6-1 5-.3 2.5-.8 5.3-1.1 6.2-.8 2.8-1.5 6.2-1.9 9.3-.2 1.6-.9 5.2-1.5 8-.7 2.7-1.4 6.3-1.7 8-.3 1.6-.9 3.7-1.4 4.6-.4.9-.6 1.8-.4 2.1.3.3-.6 6.1-2 12.9-1.4 6.8-2.8 13.7-3.1 15.4-.3 1.6-.9 4.6-1.4 6.5-.5 1.9-1.1 5.3-1.5 7.5-.3 2.2-.7 4.7-1 5.5-.2.8-.6 2.6-.9 4-2.5 13.4-4.8 25.2-5.6 28.5-.9 4-3.7 18.1-4.6 23.3-.3 1.5-1.3 6.7-2.4 11.7-1 4.9-2.2 10.6-2.5 12.5-.3 1.9-1.7 8.7-3 15-1.3 6.3-2.6 13.1-2.9 15-.8 4.9-1.3 7.2-2.4 11.3-.6 2-.7 3.8-.4 4.1.3.3.1.6-.5.6s-.9.8-.6 1.8c.2 1-.3 3.4-1.1 5.3-1.5 3.1-1.6 3.2-1.1.6.4-1.9.2-2.6-.5-2.2-.5.3-1.1-.1-1.1-.9-.2-2.4-.4-3-1-4.1-.4-.6-.6-3.2-.6-5.8-.1-2.6-.4-5.1-.8-5.5-.5-.4-.5.1-.2 1 .3 1 .3 1.9-.1 2.2-.4.3-.9-1-1-2.7-.2-1.7-.8-3.5-1.5-4-.8-.6-.7-.7.5-.3 1.2.3 1.5.1 1.1-.9-.3-.8-1-1.2-1.7-.8-.8.5-.8.3-.1-.8 1.7-2.3 1.2-5.4-.8-5.1-1.1.2-1.5-.2-1.1-1.2.3-.8 0-1.7-.5-2.1-.6-.3-.9-1.1-.5-1.6.3-.5 0-1.6-.6-2.4-.7-.8-.9-1.5-.6-1.5.4 0 .3-.8-.3-1.7-.7-1.3-.5-2.3.5-3.4 1.4-1.5 1.3-1.7-.3-1.5-1.2.1-1.8-.6-1.9-2.1-.1-1.2.2-2.1.6-1.8.4.2.7-.2.7-.9s-.7-1.3-1.6-1.2c-1.6.1-1.8-.3-2-5.5 0-1.6-.5-2.8-1-2.5-.5.4-.8-.5-.6-1.9.1-1.4-.1-2.8-.6-3.1-.4-.2-.6-1.1-.3-1.8.3-.8.1-1.7-.5-2-.6-.4-.7-1.4-.4-2.3.4-1.1.3-1.4-.5-.9-1.3.8-.6-2 1-4.1.9-1.2-.8-3-1.9-1.9-.4.3-.1.6.6.6s.9.4.6 1c-1.1 1.8-2.5 1.1-2.5-1.3 0-4.1-.3-5.7-1.2-5.7-.5 0-.7-.4-.3-.9.3-.5.1-1.2-.4-1.6-.5-.3-.8-1.5-.6-2.7.3-1.2-.1-2.6-.8-3.1-.9-.6-.8-.7.3-.4.8.2 1.4 1.2 1.3 2.2-.1 1.2.2 1.4 1 .6 1.3-1.3-.8-4.1-3.2-4.1-1.3 0-1.3-.2-.2-.9.9-.6 1-1.1.3-1.5-.6-.4-.8-1.4-.5-2.3.4-1 .2-1.4-.4-1-.6.4-.9-.3-.8-1.6.1-1.2-.5-3.3-1.3-4.6-1.3-2.2-1.3-2.4.3-1.7 1.4.5 1.6.4.7-.7-.7-.8-.8-1.8-.4-2.2.4-.5 0-.6-.9-.3-.9.4-1.6.1-1.6-.8 0-.7.3-1.1.6-.9.3.2.6-.9.6-2.4.1-2.3-.3-2.7-2-2.4-1.8.4-1.8.3-.3-.7 2-1.2 1.3-4-.9-4-.9 0-1.3-.6-1-1.5.4-.8.2-1.7-.3-2-.4-.3-.7-1.3-.5-2.3.2-.9.4-2.1.4-2.5.1-.5.5-.5 1.1-.2.5.3.2-.7-.8-2.4-1.8-3.3-3-3.5-1.3-.2.6 1.1.7 2.2.3 2.5-.5.3-.9 0-.9-.7-.1-.7-.6-2.7-1.2-4.5-.9-2.9-.8-3.2.5-2.1 1.2 1 1.3.9.8-.5-.3-.9-1-1.6-1.4-1.6-1.3 0-1.9-3.9-.8-4.7.7-.4.8-.1.3.7-.6.9-.4 1.1.5.5 1-.6.8-1.2-.8-2.6-2.3-1.8-3.2-7.9-1.2-7.9.6 0 1-.6 1-1.3-.1-.6-.9-.2-1.9 1-1.6 1.9-2 2-2.5.7-.3-.8-.2-1.3.3-1 .5.3 1.2-.1 1.5-1 .3-.8.2-1.3-.3-1-.5.3-1.1-.1-1.5-.9-.3-.8-.1-1.7.4-2 .6-.4 1-.1 1 .6s.3 1 .6.7c.7-.7-2.2-6.4-3-6.1-1.5.7-1.5.1 0-2.4 1.1-1.9 1.1-2.2.2-1.1-.8 1-1.8 1.5-2.1 1.1-.4-.3-.1-1.3.6-2.1.7-1 .8-1.3.1-.9-1.1.7-2.8-3.2-1.9-4.2.3-.2.5.1.5.7s1 1.7 2.3 2.3l2.2 1.1-2.3-2.1c-1.2-1.2-2-2.6-1.7-3.1.3-.6-.1-.7-.9-.4-1.2.4-1.4 0-1-1.8 1.1-4.6 1.2-6.8.4-6.3-.5.3-.7 1.2-.4 1.9.3.8 0 1.7-.7 2.1-.7.5-1 .3-.7-.6.3-.8.1-2.2-.4-3.2-1.4-2.8-1.8-5.6-.8-6.2.5-.3.7.3.5 1.3-.2 1 .1 2.5.5 3.2.6.9.8.3.6-1.8-.1-1.8-.8-3.8-1.6-4.5-1-.9-1.2-.9-.6 0 .4.7.2 1.3-.3 1.3-1.4 0-1.4-1.7 0-2.5.6-.5.4-1.1-.7-1.9-1.6-1.2-1.2-4.2.5-3.2.3.3.7-.4.7-1.5 0-1.9-.1-1.9-1.3-.3-.7 1-1.6 1.5-1.9 1.1-.4-.4-.3-1.2.3-1.9.5-.7.8-1.9.7-2.6-.1-.6-.2-1.7-.3-2.2 0-.6-.6-1-1.2-1s-.7.5-.2 1.2c1 1.7 1.4 4.2.5 3.3-.4-.4-.8-1.1-.8-1.6-.1-.5-.2-1-.4-1.2-.4-.5-1.1-4.3-1.2-6.4 0-1.3-.4-2-.9-1.8-.4.3-.6-.3-.4-1.5.2-1.1-.1-2.2-.6-2.5-.5-.4-.7-1-.4-1.5.3-.5 0-1.2-.5-1.5-.7-.5-.5-1.2.7-2.1 1.7-1.3 1.7-1.4-.2-.7-1.1.3-1.7.3-1.3-.2.4-.4.2-1.7-.4-2.9-1.9-3.3-1.9-5-.1-6.3 1.1-.8 1.2-1.3.4-1.3-.7 0-.9-.5-.5-1.2s.3-.8-.5-.4c-.6.4-.9 1.2-.6 1.7.4.5.1.9-.4.9-1.4 0-1.4-.6-.1-3 1.1-2 .4-5-1.2-5-.6 0-.5.7.2 1.5.7.9 1 1.8.6 2.2-.9 1-1.6 0-2-3.3-.2-1.6-.9-4.4-1.4-6.2-.6-1.7-.9-3.2-.6-3.2.2 0-.2-1.2-.9-2.8-.7-1.5-1.3-3.4-1.2-4.2 0-.8-.4-1.9-1-2.3-.6-.5-.4-.7.5-.4.8.2 1.4 1 1.2 1.6-.1.7.2 1 .7.7.5-.4 1.2 0 1.4.6.4.9.6.9.6.1.1-.6-1-2.1-2.4-3.2s-2.8-2.9-3-4c-.3-1.2-.8-3.1-1.1-4.4-.3-1.2-.6-3.2-.5-4.5 0-1.2-.4-2.2-.9-2.2-.6 0-1-.4-1-1 0-.5.8-.7 1.8-.3 1.1.3.9 0-.6-1.1-1.3-1-1.9-2.2-1.5-2.9 1.1-1.8 1.2-3.8.2-3.1-.5.3-.6 1-.3 1.6.4.7.2.8-.5.4-.6-.4-.9-1.1-.6-1.6.3-.5.1-1.1-.4-1.4-.5-.4-.8-2-.6-3.6.3-2.3 0-3-1.3-3-1.4 0-1.5-.2-.2-.9.8-.6 1.8-.7 2.2-.5.4.3.5-.2.1-1.1-.5-1.3-.7-1.4-1.4-.3-.6.9-.9.6-.9-1 0-1.3-.4-2.1-.9-1.8-.4.3-.8-.4-.7-1.5 0-1.1.7-2.3 1.4-2.8 1.1-.7 1-.9-.3-1.4-1.1-.5-1.4-.3-.9.6.5.9.4.9-.6 0-.9-.8-1-1.6-.3-2.5 1.1-1.6 1.1-2.7-.5-5.4-.6-1.2-.8-2.4-.4-2.8.3-.4-.1-.4-.9-.1-1 .4-1.6 0-1.6-.9 0-.8.5-1.2 1-.9.5.3.8 0 .6-.6-.3-.7-.9-1.2-1.4-1.1-1.5.2-2.7-4.2-1.5-5.4.8-.8.9-.6.5.6-.5 1.1.1 2 1.7 2.8 2.1 1 2.2 1 .4-.4-1-.8-1.5-2-1.1-2.6.4-.7-.2-1.4-1.4-1.7-1.1-.3-1.8-.9-1.5-1.4.3-.5 1-.6 1.6-.3.6.4.5-.3-.2-1.5-.9-1.7-.9-2.6.1-3.9 1.1-1.4 1.1-1.5-.1-.5-1.8 1.7-2.7 1.6-3.3-.1-.4-1-.1-1.3.9-.9.7.3 1.4 0 1.4-.6s-.7-1.1-1.6-1.1c-.8 0-1.2-.5-.9-1 .3-.6 0-1-.7-1.1-.7-.1-.2-.5 1.2-.9 2.4-.8 2.4-.8.3-.9-1.3-.1-2.3-.6-2.3-1.1 0-1.9-.2-2.5-1.2-3.8-.6-.6-.8-1.2-.5-1.2.3 0 0-1.5-.8-3.4-.8-1.8-1.1-3.6-.8-4 .4-.3-21.6-.5-48.7-.4l-49.4.3-1.7 6.5c-1 3.6-3.6 13.5-5.9 22-2.3 8.5-4.3 16.2-4.5 17-.2.8-1.1 4-1.9 7-2.6 9.7-9.7 36.4-10.1 38-.1.8-.9 3.5-1.6 6-.7 2.5-1.4 5.2-1.5 6-.2.8-3.4 13.2-7.3 27.5-6.9 25.9-10 37.6-19.1 72.5-2.7 10.2-6.1 22.8-7.5 28-1.4 5.2-2.8 10.2-2.9 11-.2.8-3 11.2-6.1 23-3.1 11.8-5.9 22.2-6.1 23-.4 1.7-.9 3.7-5.8 22-2 7.4-4.4 16.4-5.3 20-.9 3.6-1.9 6.7-2.2 7-.3.3-.7 1.8-.9 3.5-.2 1.6-1.3 3.8-2.5 4.8-1.3 1-1.6 1.5-.6 1.2 1.3-.5 1.5-.1 1.2 1.9-.3 1.4-.9 2.3-1.4 2-.5-.3-.7-.9-.4-1.4.3-.5.1-1.1-.4-1.4-.5-.3-.7-1.5-.4-2.6.3-1.1.9-1.8 1.2-1.5.4.2.8-.2.8-.9 0-.8-.8-1.1-1.8-.9-1.5.4-1.7.1-1.3-1.8.3-1.3.7-3.5.7-4.9.1-1.4.5-3 1-3.7.5-.8 0-1-1.6-.8-1.7.4-2.3 0-2.4-1.6-.1-1.1.5-2.3 1.3-2.6 1.8-.7 1.8-2-.1-2-.8 0-1.2.4-.9.9.3.4 0 .8-.5.8-1.5 0-.7-4 1-5.1 1-.8.8-.9-.8-.4-2.9.8-2.9-.2-.1-2.6 1.3-1 1.7-1.8 1.1-1.9-.7 0-1.3.4-1.3 1 0 .5-.5 1-1.1 1-.5 0-.7-.5-.4-1 .3-.6.2-1-.4-1-1.2 0-.2-3.1 1.3-4.3.6-.5.2-.6-1-.3-1.4.4-2.1.2-2.1-.8 0-.8.6-1.2 1.4-.9.9.4 1.1 0 .7-1.1-.3-.8-1.1-1.4-1.7-1.3-.6.1-1.1-.7-1.2-1.8 0-1.1-.4-2.6-.9-3.3-.7-1.2-.4-1.2 1.5-.2 2.2 1.1 2.2 1-.3-1.4-3.5-3.4-3.6-4.3-.2-2.1l2.7 1.7-1.9-2.5c-1.1-1.4-2.2-2.3-2.6-2-.4.2-.5-.3-.2-1.2.4-.8 0-2.3-.7-3.2-1-1.2-1-1.5-.1-.9 1.4.8 1.6-.3.2-2.4-.6-.9-.5-2 .3-2.9 1-1.2.9-1.4-.5-.8-1 .3-1.7.3-1.7-.1.1-.4 0-.9-.1-1.2-.8-2.2-.7-4.7.3-5.9.9-1.1.9-1.3 0-.8-.6.4-1.5.2-1.9-.4-.4-.7-.3-.9.4-.5.6.3 1.3.2 1.7-.4.3-.5-.1-1-.9-1-2.1 0-2-1.6.2-3 1.5-1 1.5-1-.4-.5-1.8.5-2 .1-1.8-3 .2-2.6 0-3.4-.9-2.8-.7.4-.5-.2.3-1.2.9-1.1 1-1.6.3-1.1-.8.4-1.3.2-1.4-.6 0-.7-.2-2-.4-2.8-1.4-5.5-1.3-6.5.1-8.1 1.5-1.6 1.4-1.7-.8-1.2-1.6.3-1.9.2-1-.5 1.1-.8 1.1-1 0-1.5-1-.3-1.4-1.7-1.2-4.1.2-2 0-3.4-.5-3.2-.4.3-.8-.1-.8-.9s.3-1.2.7-1c.3.2 1.1-.5 1.8-1.6 1-1.6 1-2.1-.3-2.5-.9-.4-1.9-.4-2.2 0-.4.3.2.6 1.2.6 2 0 1.3 1.3-.9 1.6-1 .1-1.3-.8-1-3.2.2-1.9 0-3.2-.5-3-.4.3-.7-.5-.6-1.7.1-1.2.9-2.3 1.8-2.5.9-.2 1.7-.8 1.7-1.3 0-.6-.7-.6-1.9.1-2.7 1.4-3 1.3-2.4-1 .3-1.1.1-2-.4-2s-1-1-1-2.3c-.1-1.2-.3-3.7-.4-5.5-.1-2.1.4-3.7 1.5-4.5 1.6-1.2 1.6-1.3-.3-1.3-1.1 0-1.8.4-1.5.7.2.4 0 1-.5 1.3-.5.4-.8-.2-.6-1.1.2-1 .4-1.8.5-1.8.1 0 .3-1 .6-2.3.2-1.2 0-2.2-.5-2.2-.6 0-.8 1-.6 2.1.3 1.2.1 1.8-.3 1.5-.4-.4-.8-1.6-.8-2.7-.1-1-.2-2-.4-2.2-1.2-1.4-.5-4.5 1.3-6 2.2-1.8 2.2-1.8 0-.8-1.7.9-2.2.7-2.7-.6-.4-.9-.1-2.1.5-2.7.9-.8 1-.8.5.1-.3.6-.3 1.4.2 1.7.4.2.8-.6.8-1.8 0-1.7-.5-2.2-1.8-1.8-1 .2-1.8-.1-1.8-.7 0-.7.4-1 .9-.7.5.4.8-.2.7-1.1-.2-1 .1-2.1.6-2.4.5-.3.3-.9-.5-1.2-1.2-.4-1.5 0-1.2 1.5.3 1.1.1 1.8-.2 1.4-.4-.4-.8-2.1-.9-3.8-.2-2.5 0-2.9.8-1.8.8 1.2.9 1.2.4-.3-.3-1 0-1.7.7-1.7.7-.1 0-.7-1.5-1.5-1.8-1-2.6-2.1-2.3-3.5.2-1.1 0-2.2-.5-2.5-.4-.3-.7-2.3-.5-4.5.2-2.8 0-3.8-.8-3.3-.7.3-.9.3-.5-.2.4-.4.2-1.7-.4-2.9l-1.1-2.1 2.4 2c1.6 1.4 2 1.5 1 .3-.7-.9-1-2.2-.6-2.7.3-.7 0-.8-1-.5-1.2.5-1.4.2-.8-1.2.4-1.1 1.4-2.5 2.2-3.2 1.4-1.1 1.3-1.2-.6-.3-2.7 1.3-3.6 1.4-2.8.2.3-.5.1-1.2-.5-1.6-.6-.4-.8-1.1-.4-1.6.3-.5.9-.7 1.4-.4.5.3 1.2 0 1.6-.6.4-.7.3-.9-.2-.6-1.7 1-3.5-.9-3.8-3.9-.1-1.6-.6-3.6-1.1-4.4-.8-1.3-.7-1.3.8-.1 2.2 1.7 2.2.7 0-1.4-1.1-1.2-1.6-3.1-1.5-6.4.2-3.4 0-4.2-.8-3.1-.8 1.2-1 1-.9-1 0-2.2-.6-6.1-1.1-6.8-.7-.8-.5-2.9.4-4.1.8-1.1.8-1.3-.1-.8-.6.4-1.5.2-1.9-.4-.4-.8-.3-.9.4-.5s1.2.2 1.2-.3c0-.6-.4-1.1-.9-1.1-.4 0-.6-1.1-.3-2.5.2-1.4.8-2.2 1.2-2 .5.3 1.1.1 1.4-.4.7-1-1.3-.9-2.9.1-.6.4-1.1-.1-1.2-1-.3-3.2-1.2-7.2-1.9-8.4-.4-.7.2-.5 1.3.5 1.6 1.4 2 1.5 2 .2 0-.8-.2-1.3-.5-1-.2.2-1.2-.3-2-1.2-1.9-1.8-2.3-5.6-.9-7.5.6-.9.7-.7.2.7-.5 1.5-.3 1.7.6.8 1.4-1.4.3-3.4-1.6-2.6-.9.3-1.5-.1-1.5-1 0-1 .7-1.3 2-1 1.2.3 2 0 2-.6 0-.7-.4-1-.8-.7-1.2.7-3.5-1-3.8-2.9-.2-1.1.3-1.5 1.2-1.1 1.1.4 1.2.2.2-1.4-.7-1-1.5-1.7-1.9-1.4-.9.5-.5-2 .6-4.9.4-1 .3-1.7-.5-1.7-.6 0-.9.4-.5.9.3.5 0 1.3-.7 1.7-.7.4-1 .4-.6-.1.4-.4.3-1.6-.3-2.6-.7-1.4-.6-1.7.4-1.3.8.3 1.4-.2 1.4-1s-.4-1.3-.8-1.1c-.8.6-1.9-3.2-1.1-4 1-.9 1.1-3.5.2-4-.5-.3-.7.4-.5 1.5.2 1.1 0 1.8-.6 1.5-.5-.4-.7-1-.4-1.5.3-.5.1-1.1-.5-1.5-1.5-.9-.2-2.5 1.5-1.8.8.3 1.5 0 1.5-.6s-.3-1-.7-1c-1.8.3-3.6-.1-3-.7.3-.4 0-1.9-.8-3.4-1.4-2.6-1.3-2.7 1.1-2.4 2.1.2 2.3 0 1.3-1.2-1.4-1.7-2.3-1.9-1.3-.2.4.7.3.8-.4.4-.6-.4-.9-1.3-.6-2.1.4-.8 1.1-1.2 1.7-.8.6.3.7.1.3-.6-.6-.9-1.1-.9-2.4.1-1.4 1.1-1.5 1-.9-.5.4-1 .7-2.1.7-2.3 0-.3.6-.2 1.3.2.9.6.9.5 0-.8-.7-.8-.9-1.9-.5-2.3.4-.5.1-.5-.6-.1s-1 1.1-.7 1.6c.3.5.1 1.1-.4 1.5-.6.3-.8-.4-.6-1.7.3-1.2-.1-2.6-.8-3.1-.8-.6-.7-.7.5-.3 1.3.4 1.5.1 1.1-1.2-.4-.9-1.1-2-1.6-2.4-.6-.3-1.1-1.5-1.2-2.5 0-1-.5-2.5-1-3.2-.5-1-.4-1.2.3-.7.7.4 1.2.1 1.2-.9s.5-1.3 1.2-.9.8.3.4-.5c-.6-.9-1.1-.9-2.3.1-1.4 1.1-1.5 1-.8-1.1.4-1.4.3-2.1-.3-1.7-.5.3-.8-.7-.6-2.6.2-1.8-.1-3.5-.6-3.8-.6-.4-1.2-2-1.4-3.6-.2-1.6-.5-2.9-.6-2.9-.1 0-.3-.8-.5-1.8-.2-.9 0-1.5.5-1.2.4.3 1.1-.2 1.4-1.1.4-.9.2-1.3-.5-.8-.6.4-1.5 0-2-.7-1.3-2-1.1-3.1.4-2.3.6.4.2-.3-1-1.5-2.2-2.1-2.3-2.1-57.6-2.1H23.3l3.3 12.7zM405 132c0 .5-.2 1-.4 1-.3 0-.8-.5-1.1-1-.3-.6-.1-1 .4-1 .6 0 1.1.4 1.1 1zm261 12.1c-.6 1-.9 2.3-.8 3 .2.6-.2 1.3-.9 1.6-.7.2-1.1-.4-1-1.6.1-1.2.5-2.1 1-2.1s.7-.9.4-1.9c-.3-1.4-.1-1.8.9-1.4 1 .4 1.1 1 .4 2.4zM410.4 151c-.6.5-2.4-2.1-2.4-3.4 0-.6.6-.1 1.4 1 .8 1 1.2 2.1 1 2.4zm247.3 27.4c0 .8-.6 1.2-1.5.9-1.1-.5-1.1-.7 0-1.4.7-.5 1.3-.9 1.4-.9 0 0 .1.6.1 1.4zm-308.1 47.1c-.3 1.8-1.9 2.2-2.4.6-.2-.6.1-1.1.8-1.1.6 0 .8-.5.4-1.2-.4-.6-.3-.8.4-.5.5.4.9 1.4.8 2.2zm295.1.1c-.3.3-1.2.4-1.9.1-.8-.3-.5-.6.6-.6 1.1-.1 1.7.2 1.3.5zm.3 2.6c0 .4-.7.8-1.5.8s-1.5-.4-1.5-.8c0-.5.7-.9 1.5-.9s1.5.4 1.5.9zm-305.3 40.2c0 .8-.6 1.2-1.5.9-1.1-.5-1.1-.7 0-1.4.7-.5 1.3-.9 1.4-.9 0 0 .1.6.1 1.4zM338 274c0 .5-.7.7-1.5.4-.8-.4-1.5-.8-1.5-1 0-.2.7-.4 1.5-.4s1.5.4 1.5 1zm111 22c0 .5-.4 1-1 1-.5 0-1-.5-1-1 0-.6.5-1 1-1 .6 0 1 .4 1 1zm170.7 26.4c0 .8-.6 1.2-1.4.9-.7-.3-1-.9-.7-1.4.8-1.4 2.1-1.1 2.1.5zm-3 10.1c0 .8-.4 1.2-.9.9-.4-.3-.8-.9-.8-1.5 0-.5.4-.9.8-.9.5 0 .9.7.9 1.5zM461 341.4c0 .3-.4.8-1 1.1-.5.3-1 .1-1-.4 0-.6.5-1.1 1-1.1.6 0 1 .2 1 .4zm150.7 9.3c-.5 1.2-1.5 2.3-2 2.3s-.4-.7.3-1.5c.6-.8.9-1.8.6-2.3-.3-.5.1-.9.8-.9 1.1 0 1.2.5.3 2.4zM317 360c.8 1.5.8 1.8-.3 1.4-.8-.3-1.4-1.1-1.4-1.9 0-2 .4-1.9 1.7.5zm-4.1 16.2c-.5 1-.7 2.4-.3 3 .4.7.3.8-.5.4-.8-.5-1 .2-.7 2.6.3 1.8.3 2.7 0 2-.5-1-.9-1-2.2 0-1.5 1.2-1.6 1.1-.3-.5 1.4-1.7 1.8-3.3 2.3-7.8.1-.9.8-1.6 1.5-1.6.8 0 .9.5.2 1.9zM601 391.4c0 .3-.4.8-1 1.1-.5.3-1 .1-1-.4 0-.6.5-1.1 1-1.1.6 0 1 .2 1 .4zm-297.4 21.3c-.2.9-.8 1.9-1.4 2.1-1.5.5-1.6-1.4-.2-2.3.6-.4.7-1.1.4-1.7-.4-.6-.2-.8.4-.5.5.4.9 1.5.8 2.4zm290.7-.2c.4.8.3 1.6-.1 1.9-.4.3-.9-.4-.9-1.5-.2-2.3.3-2.5 1-.4zm-1 7.2c-.3.7-.8 1.3-1.2 1.3-.4 0-.8-.6-.8-1.3 0-.8.6-1.4 1.3-1.4.7 0 1 .6.7 1.4zM483.6 428c0 1.2-.4 1.6-.9 1.1s-.6-1.4-.3-2c1-1.5 1.2-1.4 1.2.9zm-280.1 12.9c0 1.7-.3 3.2-.6 3.5-.4.5-.5-5.3 0-6.2.4-.8.7.2.6 2.7zm383.9 3.9c.2.4-.4.8-1.4.8-1 0-1.6-.4-1.4-.8.3-.4.9-.8 1.4-.8.5 0 1.1.4 1.4.8zm-1.4 5.7c0 1.2-1.9 1.2-2.3 0-.4-.9-.1-1.2.9-.8.7.3 1.4.7 1.4.8zM293.5 453c.3.6-.1.7-.9.4-1.8-.7-2.1-1.4-.7-1.4.6 0 1.3.4 1.6 1zM582 464c0 .5-.2 1-.4 1-.3 0-.8-.5-1.1-1-.3-.6-.1-1 .4-1 .6 0 1.1.4 1.1 1zm-293.5 5.8c-.2.3 0 1.3.6 2.3.6 1.2.6 1.9 0 1.9-.5 0-1.8.3-2.8.6-1.1.4-1.4.3-.7-.3.6-.4 1-1.7.9-2.9-.1-1.1.5-2.1 1.2-2.1s1.1.2.8.5zm-5.9 22.7c.1.7-.4 1.6-1.2 1.9-1.1.4-1.2.1-.5-1.3.6-1 .8-2.1.6-2.5-.3-.3-.2-.4.2-.1.4.3.8 1.2.9 2zm288.9 10.3c-.2.9-.4 1.7-.6 1.7-.1 0-.3.9-.4 2.1-.3 2.6-3.4 7.4-4.9 7.4-.6 0-.5-.4.3-.9s1.1-1.6.8-2.4c-.4-1.2-.2-1.4 1-1 1.1.4 1.4.2.9-.5-.4-.7-.2-1.2.5-1.2.8 0 .8-.4-.1-1.5-.7-.8-.8-1.5-.2-1.5.5 0 .8-1.4.7-3-.2-2.4 0-2.8 1-2 .7.6 1.2 1.9 1 2.8zM279 507.4c0 .2-.7.7-1.6 1-.8.3-1.2.2-.9-.4.6-1 2.5-1.4 2.5-.6zm-6.5 22.6c.3.5.1 1-.4 1-.6 0-1.1-.5-1.1-1 0-.6.2-1 .4-1 .3 0 .8.4 1.1 1zm-39 31.9c.3.5 0 1.3-.6 1.7-.7.4-.9.3-.5-.4.3-.5 0-1.3-.6-1.5-.9-.4-1-.6-.1-.6.6-.1 1.4.3 1.8.8zm251.5.2c0 .5.5.7 1.2.3.7-.4.8-.3.4.4-.4.6-1.3.9-2.1.5-1.7-.6-2-2.3-.5-2.3.6 0 1 .5 1 1.1zm32 0c0 .5.5.7 1.2.3.7-.4.8-.3.4.4-.4.6-1.3.9-2.1.5-1.7-.6-2-2.3-.5-2.3.6 0 1 .5 1 1.1zm-57 1.9c0 .5-.2 1-.4 1-.3 0-.8-.5-1.1-1-.3-.6-.1-1 .4-1 .6 0 1.1.4 1.1 1z"/><path d="M400 112.4c.7.7 1.3.7 2 0 .6-.6.3-1-1-1s-1.6.4-1 1zm.5 2.5c-.9 1.5 1.5 2.5 2.8 1.2.9-.9.7-1-.7-.5-1.3.5-1.7.4-1.2-.4.4-.7.5-1.2.2-1.2s-.7.4-1.1.9zm272.5.5c0 .2.7.7 1.6 1 .8.3 1.2.2.9-.4-.6-1-2.5-1.4-2.5-.6zm-534.3 2.7c.7.7 1.5 1 1.8.7.3-.3-.2-.9-1.2-1.2-1.4-.6-1.5-.5-.6.5zm533.8 1.9c-.3.5-.2 1 .4 1 .5 0 1.3-.5 1.6-1 .3-.6.2-1-.4-1-.5 0-1.3.4-1.6 1zm-532.9.8c-.2.4-.1 1.4.4 2.2.7 1.1.9.9.7-.8-.1-2.4-.3-2.6-1.1-1.4zm3.4 19c0 .4.9 1.3 2 2 1.9 1.2 2 1.1.8-.8-1.3-2-2.8-2.7-2.8-1.2zM662 159c-.8.5-1 1-.5 1 .6 0 1.7-.5 2.5-1s1.1-1 .5-1c-.5 0-1.7.5-2.5 1zm-513.8 2.3c1 .8 1.4 1.8 1 2.2-.4.5-.1.5.6.1 1.7-1 1.5-1.4-1-2.6-2.1-1-2.1-1-.6.3zm513.3.6c-.6 1.1 1.3 2.6 2.2 1.7.4-.3.1-.6-.6-.6s-.9-.5-.6-1c.3-.6.4-1 .1-1-.3 0-.7.4-1.1.9zm-2.5 4.3c0 1.1 2.8 1 3.5-.1.3-.6-.4-.9-1.5-.8-1.1.1-2 .5-2 .9zm.4 3c-.4.7-.9 2-.9 3-.1 1.3.2 1.5 1.6.7 2.6-1.4 3.1-2.5 1.5-3.8-1.1-.9-1.6-.9-2.2.1zm2 1.9c-.3.5-1 .7-1.5.3-.5-.3-.7-1-.3-1.5.3-.5 1-.7 1.5-.3.5.3.7 1 .3 1.5zm-244.9.9c-1.6.7-1.7.9-.3.9.9.1 2-.4 2.3-.9.7-1.1.7-1.1-2 0zm-265.8 2.1c.7.7 1.5 1 1.8.7.3-.3-.2-.9-1.2-1.2-1.4-.6-1.5-.5-.6.5zm268.8 3.8c-.3.5-.2 1.2.3 1.5.5.3.9-.1.9-.9 0-1.7-.3-1.9-1.2-.6zm237.5 6c0 .7-.4 1-.9.6-.5-.3-1.2-.1-1.6.5-.3.5.1 1 .9 1 1.7 0 3.1-1.8 2.2-2.7-.3-.4-.6-.1-.6.6zm-237.5 2c-.3.5-.2 1.2.3 1.5.5.3.9-.1.9-.9 0-1.7-.3-1.9-1.2-.6zm234.5 1.8c0 .6.8 1.7 1.8 2.4 1.6 1.3 1.6 1.3.2-.6-.8-1.1-1.6-2.2-1.7-2.4-.2-.2-.3 0-.3.6zm-233.3 1.9c-.3.4-.2 1.4.3 2.4s.7 2 .5 2.4c-.3.3-.2.4.2.1.3-.3 1.2.3 2 1.3.8.9.5.1-.6-1.9s-1.8-3.9-1.4-4.2c.3-.4.4-.7.1-.7-.2 0-.8.3-1.1.6zm-265.4 12.9c0 .8.3 1.3.5 1 .3-.3 1.2.1 2 .8 1.3 1.1 1.4.9.1-1.1-1.6-2.6-2.6-2.8-2.6-.7zM424 204c.6 1.1 1.3 2 1.6 2 .2 0 0-.9-.6-2s-1.3-2-1.6-2c-.2 0 0 .9.6 2zm1.6 3.8c-.3.5.1.9.9.9s1.5-.4 1.5-.9c0-.4-.4-.8-.9-.8-.6 0-1.2.4-1.5.8zM157.7 212c.3 1.1.7 2 .9 2 .2 0 .4-.9.4-2s-.4-2-.9-2-.7.9-.4 2zm269.8 1.9c-.3.5-.2 1.2.3 1.5.5.3.9-.1.9-.9 0-1.7-.3-1.9-1.2-.6zm-266.1 6.2c-.3.6-.2 1.5.3 2s.9.1.9-1.1c0-2.3-.2-2.4-1.2-.9zm-.9 6.6c.2 1 .4 1.8.5 1.8.1 0 .3.8.5 1.9.5 2.7 2.1 4 3 2.5.5-.8.4-1-.3-.5-.7.4-1.3.2-1.3-.3-.2-1.4-.6-2.9-.9-3.6-.1-.3-.3-.9-.4-1.4 0-.5-.4-1.2-.8-1.6-.3-.4-.5.1-.3 1.2zm2.8-.2c0 .8.4 1.2.9.9.5-.3.6-1 .3-1.5-.9-1.3-1.2-1.1-1.2.6zm267.1.6c-.4.7-.3.9.4.5.5-.3 1.3 0 1.5.6.4.9.6 1 .6.1.1-1.7-1.6-2.5-2.5-1.2zm3.1 12.9c.3.5.8 1 1.1 1 .2 0 .4-.5.4-1 0-.6-.5-1-1.1-1-.5 0-.7.4-.4 1zm-270 1.9c-.3.6.5 1.5 1.7 2.1 2.1 1 2.1 1 .6-.3-1-.8-1.5-1.7-1.1-2 .3-.4.4-.7 0-.7-.3 0-.8.4-1.2.9zm270.5.6c0 .2.6.8 1.3 1.4 1 .8 1.4.7 1.4-.2 0-.8-.6-1.4-1.4-1.4-.7 0-1.3.1-1.3.2zm205.5 2.5c.3.5.8 1 1.1 1 .2 0 .4-.5.4-1 0-.6-.5-1-1.1-1-.5 0-.7.4-.4 1zM437 248c-.9.6-1 1-.3 1 .6 0 1.5-.5 1.8-1 .8-1.2.4-1.2-1.5 0zm200.3 1.8c-.1 2.3-1.1 6-1.8 7.2-.3.6-.1 1 .4 1 .6 0 1.1-.7 1.1-1.5s.4-1.5.9-1.5.7-.8.4-1.8c-.3-1.2.4-2.3 1.9-3 1.3-.7 1.6-1.1.7-.8-.9.2-2.1 0-2.6-.5s-.9-.2-1 .9zm-471.9.7c.3 2.3 2.2 3.9 3.1 2.6.4-.7.1-1-.7-.9-.8.2-1.2-.4-1-1.5.2-.9-.1-1.7-.7-1.7-.5 0-.8.7-.7 1.5zm1.6 7.9c.7.7 1.3.7 2 0 .6-.6.3-1-1-1s-1.6.4-1 1zm274 3c0 .2.7.7 1.6 1 .8.3 1.2.2.9-.4-.6-1-2.5-1.4-2.5-.6zm-270.2 13.3c.7.3 1.6.2 1.9-.1.4-.3-.2-.6-1.3-.5-1.1 0-1.4.3-.6.6zm168.7 1.3c-.3.5-.1 1 .4 1 .6 0 1.1-.5 1.1-1 0-.6-.2-1-.4-1-.3 0-.8.4-1.1 1zm-168.9.8c-.3.6-.1 1.4.5 1.7 1.5 1 2.5-.3 1.2-1.6-.7-.7-1.3-.7-1.7-.1zm165.5-.2c.1.5 0 1.1-.1 1.4-.6 1.7-.7 4-.2 4 .4 0 1.3-.9 1.9-1.9 1-1.6.9-2.2-.3-3.2-.8-.7-1.4-.8-1.3-.3zm294.2 2.1c.4.3.2 1.2-.4 2-.9.9-.8 1.3 0 1.3.6 0 1.1-.5 1.1-1.1 0-.5.6-.7 1.3-.3.8.5.8.2-.2-.9-.7-.9-1.6-1.7-1.9-1.7-.3 0-.2.3.1.7zm-296 11.5c-1.9 2.5-2.6 4.1-1.5 3.4.5-.3 1.3 0 1.6.6.3.7.3.2-.1-1.2-.5-2.3-.5-2.4 1.3-1 1.7 1.4 1.8 1.4.6-.2-1-1.3-1-1.7 0-2.1.8-.3.8-.6.2-.6-.6-.1-1.6.5-2.1 1.1zm292.4 4.5c-1.1 1-.8 2 .7 2.6.8.3 1.3 0 1.2-.8-.3-1.9-1.1-2.7-1.9-1.8zm-294.8.8c-.1.3-.2.8-.3 1.2-.1.5-.4 1.3-.8 1.9-.7 1.1-.3 5.2.6 6.1.7.8 2.6-.7 2.6-2 0-.8-.3-.8-.9.2-.5.8-1.1.9-1.5.3-.3-.6.4-1.8 1.6-2.8 1.5-1.1 1.7-1.4.6-1.1-2.2.8-2.4-.9-.2-2.1 1.5-.8 1.5-1 0-1.5-.9-.4-1.7-.4-1.7-.2zm-155.6 11c0 .8.4 1.2.9.9.4-.3.8-.9.8-1.5 0-.5-.4-.9-.8-.9-.5 0-.9.7-.9 1.5zm153.3.4c-.4.6-.2 1.1.5 1.1s.4.7-.7 1.5c-1 .8-1.5 1.5-1 1.5s.4.6-.2 1.3c-.6.7-1 2.2-.8 3.2.2 1.1-.4 3-1.2 4.3-1.4 2.2-1.3 2.5.8 4.5 1.3 1.2 1.9 1.5 1.4.7-.6-.8-1-2.2-.9-3 .1-.8.3-2.1.3-2.8.1-.7.6-1.1 1.1-.7.5.3 1.3.1 1.6-.5.4-.6.1-.9-.6-.8-1.8.4-1.8-4.1 0-5.2 1.3-.8 1.3-.9.2-1-1.2 0-1.1-.3.2-1.3 1.1-.8 1.4-1.7.8-2.6-.6-.9-1.1-1-1.5-.2zm294.2-.2c.7.3 1.6.2 1.9-.1.4-.3-.2-.6-1.3-.5-1.1 0-1.4.3-.6.6zm-2.4 5.8c.1.8.6 1.8 1.1 2.2.4.4.5.2.1-.5-.5-.8-.1-1.2 1.1-1.2 1.5 0 1.6-.2.3-1-2.1-1.4-2.9-1.2-2.6.5zm-440.7 13.1c-.8.8.3 3.4 1.5 3.4.7 0 .6-.5-.1-1.3-.6-.8-.8-1.7-.4-2 .3-.4.4-.7.1-.7-.2 0-.7.3-1.1.6zm276.6 3.9c0 .8.4 1.2.9.9.5-.3.6-1 .3-1.5-.9-1.3-1.2-1.1-1.2.6zm1.5 4.2c.7.3 1.6.2 1.9-.1.4-.3-.2-.6-1.3-.5-1.1 0-1.4.3-.6.6zM320.7 343c.9 1 1 1.7.2 2.7-.7.7-.7 1.3-.3 1.3.5 0 1.5-1 2.3-2.3.7-1.2 1-1.9.6-1.5-.5.4-1.5.2-2.4-.4-1.3-1-1.4-1-.4.2zm142.6.5c0 .8.4 1.2.9.9.5-.3.6-1 .3-1.5-.9-1.3-1.2-1.1-1.2.6zm-277.6 5c-.4.8-.3 1.6.1 1.9.4.3.9-.4.9-1.5.2-2.3-.3-2.5-1-.4zm1.8 3.6c-.4.6-.5 1.2-.2 1.5.2.3.7-.2 1-1.1.7-1.7.1-2-.8-.4zM189 364c-.9.6-1 1-.3 1 .6 0 1.5-.5 1.8-1 .8-1.2.4-1.2-1.5 0zm-.4 3.2c.3.5 1 .6 1.5.3 1.3-.9 1.1-1.2-.6-1.2-.8 0-1.2.4-.9.9zm129 1.5c-.6 1.4-.5 1.5.5.6.7-.7 1-1.5.7-1.8-.3-.3-.9.2-1.2 1.2zM191 369.9c0 .6.4 1.3 1 1.6.6.3.7-.1.4-.9-.7-1.8-1.4-2.1-1.4-.7zm277.2 1.1c.7 1.1 1.7 2 2.2 2 .5 0 .1-.9-.9-2s-2-2-2.2-2c-.2 0 .2.9.9 2zm138.8 1c0 .5.5 1 1 1 .6 0 1-.5 1-1 0-.6-.4-1-1-1-.5 0-1 .4-1 1zm-137.4 3.3c.3 1 .9 1.5 1.2 1.2.3-.3 0-1.1-.7-1.8-1-.9-1.1-.8-.5.6zM192.5 386c-.3.5-.1 1 .4 1 .6 0 1.1-.5 1.1-1 0-.6-.2-1-.4-1-.3 0-.8.4-1.1 1zm279.5.5c0 .2.6.8 1.3 1.4 1 .8 1.4.7 1.4-.2 0-.8-.6-1.4-1.4-1.4-.7 0-1.3.1-1.3.2zm-162.6 2.2c.1.7.8 1.8 1.4 2.3.9.7.9.7.2-.2-.6-.7-.4-1.5.6-2.3 1.3-.9 1.3-1.1-.4-1.1-1.1 0-1.9.6-1.8 1.3zm292.3-.4c-.3.8.1 1.4.8 1.4.7 0 1.1-.6.8-1.4-.3-.7-.6-1.3-.8-1.3-.2 0-.5.6-.8 1.3zm-128 2.6c.6.7.9 1.9.7 2.6-.3.6.1 1.7.9 2.3 1.1.9 1.4.8 1.4-.3 0-.8-.4-1.2-.9-.9-1.1.7-1-1 .2-2.4.6-.6.7-1 .4-.7-.4.3-1.4-.1-2.3-.7-1.3-1-1.4-1-.4.1zm-279.1 3.3c.3.5 1 .6 1.5.3 1.3-.9 1.1-1.2-.6-1.2-.8 0-1.2.4-.9.9zm114.4 3.9c0 .5-.4.8-.9.5-1.1-.7-.9 2.1.2 2.9.4.3.5.2.2-.2-.3-.3.2-1.5 1.2-2.5.9-1.1 1.1-1.8.5-1.8-.7 0-1.2.5-1.2 1.1zm167.3 2c-.2 2.3.3 2.5 1 .4.4-.8.3-1.6-.1-1.9-.4-.3-.9.4-.9 1.5zm120.6 2.1c-.1.2-.2 1.5-.3 2.9-.2 1.4-.5 3-.9 3.5-.3.6-.2 1.6.4 2.4.5.8.9 1 1 .5 0-.6.2-2.4.3-4 .1-1.7.6-3.6 1-4.3.4-.7.2-1.2-.3-1.2-.6 0-1.1.1-1.2.2zm2.1 2.8c0 .5.5 1 1.1 1 .5 0 .7-.5.4-1-.3-.6-.8-1-1.1-1-.2 0-.4.4-.4 1zm-294 1.5c-1.3 1.6-.6 3.5 1.3 3.4.9 0 .9-.2 0-.6-.7-.2-1.3-.9-1.3-1.4 0-.4.6-.7 1.3-.5.6.1.9.1.4-.1-.4-.3-.5-.9-.1-1.4.8-1.4-.2-1-1.6.6zm174 1.5c-.9.6-1 1-.3 1 .6 0 1.5-.5 1.8-1 .8-1.2.4-1.2-1.5 0zm-281.7 4.7c0 .9.4 1 1.4.2.7-.6 1.3-1.2 1.3-1.4 0-.1-.6-.2-1.3-.2-.8 0-1.4.6-1.4 1.4zm282.5 1c.7.3 1.6.2 1.9-.1.4-.3-.2-.6-1.3-.5-1.1 0-1.4.3-.6.6zm.8 2.9c-.3.8-.2 1.3.3.9.5-.3 1.1.1 1.4.7.3.7.4.3.4-1-.1-2.5-1.2-2.9-2.1-.6zm1 4.3c-.3.5.2 1.5 1.2 2.2 1.5 1.2 1.6 1.2.5-.2-.7-.9-1-1.9-.6-2.2.3-.4.4-.7 0-.7-.3 0-.8.4-1.1.9zm-178.3 2.6c0 .8.4 1.2.9.9.5-.3.6-1 .3-1.5-.9-1.3-1.2-1.1-1.2.6zm-2.3 7.4c0 .6.4 1.3 1 1.6.6.3.7-.1.4-.9-.7-1.8-1.4-2.1-1.4-.7zm-98.4 3.9c-.3.5.1.9.9.9s1.2-.4.9-.9c-.3-.4-.7-.8-.9-.8-.2 0-.6.4-.9.8zm385.4 7.1c0 .6.4 1.3 1 1.6.6.3.7-.1.4-.9-.7-1.8-1.4-2.1-1.4-.7zM204.5 446c-.3.5-.1 1 .4 1 .6 0 1.1-.5 1.1-1 0-.6-.2-1-.4-1-.3 0-.8.4-1.1 1zm284 1c-.3.6.1.7.9.4 1.8-.7 2.1-1.4.7-1.4-.6 0-1.3.4-1.6 1zm1.2 4.1c.7.7 1.5 1 1.8.7.3-.3-.2-.9-1.2-1.2-1.4-.6-1.5-.5-.6.5zm-199.1 8.8c-.3.5 0 1.4.7 1.9 1 .8 1.3.6 1.4-.9.2-1.9-1.1-2.6-2.1-1zm-1.2 7.5c2.4 1.9 3.6 2 3.6.4 0-.6-.3-.8-.6-.5-.4.3-1.6.2-2.8-.4-2-1-2-1-.2.5zM575.5 484c-.3.5-.1 1 .4 1 .6 0 1.1-.5 1.1-1 0-.6-.2-1-.4-1-.3 0-.8.4-1.1 1zm-292.2 3.5c0 .8.4 1.2.9.9.5-.3.6-1 .3-1.5-.9-1.3-1.2-1.1-1.2.6zm291.9-.2c-1 1.2-1 1.7-.1 2.3.8.5.9.3.4-.6-.6-1-.4-1.2.8-.7.9.3 1.9.1 2.3-.5.4-.6.3-.8-.4-.4-.5.3-1.2.1-1.4-.5-.2-.7-.8-.6-1.6.4zm-3.2 7.1c0 .2.7.9 1.5 1.6.9.7 1.5.8 1.5.2 0-.5-.7-1.2-1.5-1.6-.8-.3-1.5-.4-1.5-.2zm-295.1 16.9c-.5 1.2-.4 4.5.2 4.1.4-.2 1 .2 1.2.8.4.9.6.8.6-.3.1-.8-.5-2.1-1.1-2.8-1.1-1.1-.9-1.2 1-.6 1.2.3 2.2.3 2.2-.2 0-.7-3.8-1.6-4.1-1zm-1.6 11.2c0 .8.4 1.2.9.9.4-.3.8-.9.8-1.5 0-.5-.4-.9-.8-.9-.5 0-.9.7-.9 1.5zm291.3 1.2c-.6 1.4-.9 1.5-1.5.4-.7-1-.9-1-1.4.1-.8 2.1 2 1.8 4-.4.9-1 1.1-1.8.6-1.8-.6 0-1.4.8-1.7 1.7zm-4.5 10c-1.5 3.2-1.3 3.7 1.4 4 1.9.3 1.9.2.1-.8-1.4-.9-1.5-1.3-.5-1.9 1.4-.9 2.2-4 1-4-.4 0-1.3 1.2-2 2.7zm-291.6 9.9c-2 2.2-2.2 3-1.4 4.7 1 1.8.9 1.9-1.1 1.4-1.6-.4-2-.3-1.2.5.6.6 1.8.8 2.7.4 1.2-.4 1.4-1 .6-2.5-.8-1.5-.5-2.4 1.6-4.5 1.4-1.4 2.3-2.6 1.9-2.6-.4 0-1.8 1.2-3.1 2.6zm-3.5 14.5c0 .5.5.7 1 .4.6-.3 1-.8 1-1.1 0-.2-.4-.4-1-.4-.5 0-1 .5-1 1.1zm289.1.3c-.9 1.1-.9 1.6.1 2.2.7.4 1 .4.6-.1-.4-.4 0-1.4 1-2.1.9-.7 1.2-1.4.6-1.4s-1.7.6-2.3 1.4zm-330.4 5.7c.4 1.3.8 1.8 1.1 1 .2-.7-.1-1.8-.6-2.3-.8-.8-.9-.4-.5 1.3zm320 0c.4 1.3.8 1.8 1.1 1 .2-.7-.1-1.8-.6-2.3-.8-.8-.9-.4-.5 1.3zm-394.7-.2c0 .5 1.1.8 2.5.8 3 0 2.8-.6-.4-1.2-1.1-.2-2.1 0-2.1.4zm7 .1c-1 .6-1.1 1-.2 1 2.2 0 2.7.2 4.1 1.3 1.2 1 1.2.9 0-1.1-1.6-2.5-1.8-2.6-3.9-1.2zm5.4.7c2 2.4 3.7 2.2 3.5-.5-.1-1.5-.2-1.4-.6.1-.5 1.8-.5 1.8-2.6 0l-2.2-1.8 1.9 2.2zm7.9 0c.1 1.7.4 1.9 1.4 1.1.7-.6 1.3-1.6 1.3-2.2 0-.6-.4-.5-.9.3-.7 1.1-.9 1.1-1.4 0-.3-.8-.4-.4-.4.8zm10.3-.1c-.4.9-.4 1.9-.1 2.2.2.3.7-.3 1.1-1.2.4-.9.4-1.9.1-2.2-.2-.3-.7.3-1.1 1.2zm21-.4c.3.5 1 .6 1.5.3 1.3-.9 1.1-1.2-.6-1.2-.8 0-1.2.4-.9.9zm3 .4c-.4.9-.4 1.9-.1 2.2.2.3.7-.3 1.1-1.2.4-.9.4-1.9.1-2.2-.2-.3-.7.3-1.1 1.2zm22.7.5c-.2 2.3.3 2.5 1 .4.4-.8.3-1.6-.1-1.9-.4-.3-.9.4-.9 1.5zm22.3-.9c.3.5 1 .6 1.5.3 1.3-.9 1.1-1.2-.6-1.2-.8 0-1.2.4-.9.9zm3 .4c-.4.9-.4 1.9-.1 2.2.2.3.7-.3 1.1-1.2.4-.9.4-1.9.1-2.2-.2-.3-.7.3-1.1 1.2zm5.7-.3c0 .8.6 1.4 1.4 1.4.9 0 1-.4.2-1.4-.6-.7-1.2-1.3-1.4-1.3-.1 0-.2.6-.2 1.3zm187.7-.1c0 .4 1.2.6 2.8.4 1.5-.1 3.5.1 4.4.6 1.3.6 1.6.5 1.3-.4-.6-1.4-8.5-1.9-8.5-.6zm33 .3c-.7.9-.8 1.5-.2 1.5.5 0 1.2-.7 1.6-1.5.3-.8.4-1.5.2-1.5s-.9.7-1.6 1.5zm25.5-.5c-.3.5-.1 1 .4 1 .6 0 1.1-.5 1.1-1 0-.6-.2-1-.4-1-.3 0-.8.4-1.1 1zm2.5 1c-.6 1.1-.8 2-.6 2 .3 0 1-.9 1.6-2 .6-1.1.8-2 .6-2-.3 0-1 .9-1.6 2zm3.6-.4c-2 1.9-2 2.5-.2 1.8.8-.3 1.7-1.2 2-2 .7-1.8.1-1.8-1.8.2zm25.9-.6c-.3.5-.1 1 .4 1 .6 0 1.1-.5 1.1-1 0-.6-.2-1-.4-1-.3 0-.8.4-1.1 1zm2.5 1c-.6 1.1-.8 2-.6 2 .3 0 1-.9 1.6-2 .6-1.1.8-2 .6-2-.3 0-1 .9-1.6 2zm-393.6 60.5V637h203.8c112.1 0 203.8-.3 203.9-.8.1-1 .1-19.5 0-21-.1-.9-41.6-1.2-203.9-1.2H146.5l-.1 11.5z"/></svg>